solid CATIA STL
  facet normal -4.999998e-001 -8.660256e-001  -0.000000e+000
    outer loop
      vertex  2.336693e+002  3.714272e+002  0.000000e+000
      vertex  2.336693e+002  3.714272e+002  3.333300e+002
      vertex  2.048307e+002  3.880771e+002  0.000000e+000
    endloop
  endfacet
  facet normal -4.999998e-001 -8.660256e-001  0.000000e+000
    outer loop
      vertex  2.048307e+002  3.880771e+002  0.000000e+000
      vertex  2.336693e+002  3.714272e+002  3.333300e+002
      vertex  2.048307e+002  3.880771e+002  3.333300e+002
    endloop
  endfacet
  facet normal  8.660254e-001 -5.000001e-001  0.000000e+000
    outer loop
      vertex  2.336693e+002  3.714272e+002  0.000000e+000
      vertex  2.689039e+002  4.324552e+002  0.000000e+000
      vertex  2.336693e+002  3.714272e+002  3.333300e+002
    endloop
  endfacet
  facet normal  8.660255e-001 -5.000000e-001  1.381943e-008
    outer loop
      vertex  2.336693e+002  3.714272e+002  3.333300e+002
      vertex  2.689039e+002  4.324552e+002  0.000000e+000
      vertex  2.601693e+002  4.173265e+002  3.333300e+002
    endloop
  endfacet
  facet normal  0.000000e+000  0.000000e+000 -1.000000e+000
    outer loop
      vertex  2.048307e+002  3.880771e+002  0.000000e+000
      vertex  2.400652e+002  4.491052e+002  0.000000e+000
      vertex  2.336693e+002  3.714272e+002  0.000000e+000
    endloop
  endfacet
  facet normal  0.000000e+000  0.000000e+000 -1.000000e+000
    outer loop
      vertex  2.336693e+002  3.714272e+002  0.000000e+000
      vertex  2.400652e+002  4.491052e+002  0.000000e+000
      vertex  2.689039e+002  4.324552e+002  0.000000e+000
    endloop
  endfacet
  facet normal -8.660254e-001  5.000001e-001  0.000000e+000
    outer loop
      vertex  2.048307e+002  3.880771e+002  0.000000e+000
      vertex  2.048307e+002  3.880771e+002  3.333300e+002
      vertex  2.400652e+002  4.491052e+002  0.000000e+000
    endloop
  endfacet
  facet normal -8.660253e-001  5.000002e-001  4.145828e-008
    outer loop
      vertex  2.400652e+002  4.491052e+002  0.000000e+000
      vertex  2.048307e+002  3.880771e+002  3.333300e+002
      vertex  2.313307e+002  4.339765e+002  3.333300e+002
    endloop
  endfacet
  facet normal  0.000000e+000  0.000000e+000  1.000000e+000
    outer loop
      vertex  2.048307e+002  3.880771e+002  3.333300e+002
      vertex  2.336693e+002  3.714272e+002  3.333300e+002
      vertex  2.313307e+002  4.339765e+002  3.333300e+002
    endloop
  endfacet
  facet normal  0.000000e+000  0.000000e+000  9.999999e-001
    outer loop
      vertex  2.313307e+002  4.339765e+002  3.333300e+002
      vertex  2.336693e+002  3.714272e+002  3.333300e+002
      vertex  2.601693e+002  4.173265e+002  3.333300e+002
    endloop
  endfacet
  facet normal  4.993147e-001  8.648386e-001  5.233604e-002
    outer loop
      vertex  2.601693e+002  4.173265e+002  3.333300e+002
      vertex  2.689039e+002  4.324552e+002  0.000000e+000
      vertex  2.313307e+002  4.339765e+002  3.333300e+002
    endloop
  endfacet
  facet normal  4.993145e-001  8.648387e-001  5.233601e-002
    outer loop
      vertex  2.313307e+002  4.339765e+002  3.333300e+002
      vertex  2.689039e+002  4.324552e+002  0.000000e+000
      vertex  2.400652e+002  4.491052e+002  0.000000e+000
    endloop
  endfacet
endsolid CATIA STL
