solid CATIA STL
  facet normal -4.999991e-001 -8.660260e-001  0.000000e+000
    outer loop
      vertex  2.170053e+002  3.758642e+002  3.663300e+002
      vertex  2.025860e+002  3.841892e+002  3.663300e+002
      vertex  2.170053e+002  3.758642e+002  3.333300e+002
    endloop
  endfacet
  facet normal -4.999991e-001 -8.660260e-001  0.000000e+000
    outer loop
      vertex  2.170053e+002  3.758642e+002  3.333300e+002
      vertex  2.025860e+002  3.841892e+002  3.663300e+002
      vertex  2.025860e+002  3.841892e+002  3.333300e+002
    endloop
  endfacet
  facet normal  0.000000e+000  0.000000e+000 -1.000000e+000
    outer loop
      vertex -2.244695e+000  4.346121e+002  3.333300e+002
      vertex -2.244695e+000  4.876121e+002  3.333300e+002
      vertex  1.440530e+001  4.346121e+002  3.333300e+002
    endloop
  endfacet
  facet normal  0.000000e+000  0.000000e+000 -1.000000e+000
    outer loop
      vertex  1.440530e+001  4.346121e+002  3.333300e+002
      vertex -2.244695e+000  4.876121e+002  3.333300e+002
      vertex  1.440530e+001  4.876121e+002  3.333300e+002
    endloop
  endfacet
  facet normal  0.000000e+000  0.000000e+000  1.000000e+000
    outer loop
      vertex -2.244695e+000  4.858826e+002  3.663300e+002
      vertex -2.244695e+000  4.346121e+002  3.663300e+002
      vertex  2.085973e+001  4.858826e+002  3.663300e+002
    endloop
  endfacet
  facet normal  0.000000e+000  0.000000e+000  1.000000e+000
    outer loop
      vertex  2.085973e+001  4.858826e+002  3.663300e+002
      vertex -2.244695e+000  4.346121e+002  3.663300e+002
      vertex  1.440530e+001  4.346121e+002  3.663300e+002
    endloop
  endfacet
  facet normal  -0.000000e+000  0.000000e+000  1.000000e+000
    outer loop
      vertex  2.085973e+001  4.858826e+002  3.663300e+002
      vertex  1.440530e+001  4.346121e+002  3.663300e+002
      vertex  2.226316e+002  4.318180e+002  3.663300e+002
    endloop
  endfacet
  facet normal  0.000000e+000  0.000000e+000  1.000000e+000
    outer loop
      vertex  2.226316e+002  4.318180e+002  3.663300e+002
      vertex  1.440530e+001  4.346121e+002  3.663300e+002
      vertex  2.426406e+002  4.202658e+002  3.663300e+002
    endloop
  endfacet
  facet normal  0.000000e+000  0.000000e+000  1.000000e+000
    outer loop
      vertex  2.426406e+002  4.202658e+002  3.663300e+002
      vertex  1.440530e+001  4.346121e+002  3.663300e+002
      vertex  2.025860e+002  3.841892e+002  3.663300e+002
    endloop
  endfacet
  facet normal  -0.000000e+000  0.000000e+000  1.000000e+000
    outer loop
      vertex  2.426406e+002  4.202658e+002  3.663300e+002
      vertex  2.025860e+002  3.841892e+002  3.663300e+002
      vertex  2.170053e+002  3.758642e+002  3.663300e+002
    endloop
  endfacet
  facet normal -1.000000e+000  0.000000e+000  0.000000e+000
    outer loop
      vertex -2.244695e+000  4.876121e+002  3.333300e+002
      vertex -2.244695e+000  4.346121e+002  3.333300e+002
      vertex -2.244695e+000  4.858826e+002  3.663300e+002
    endloop
  endfacet
  facet normal -1.000000e+000  -0.000000e+000  0.000000e+000
    outer loop
      vertex -2.244695e+000  4.858826e+002  3.663300e+002
      vertex -2.244695e+000  4.346121e+002  3.333300e+002
      vertex -2.244695e+000  4.346121e+002  3.663300e+002
    endloop
  endfacet
  facet normal  0.000000e+000 -1.000000e+000  0.000000e+000
    outer loop
      vertex -2.244695e+000  4.346121e+002  3.663300e+002
      vertex -2.244695e+000  4.346121e+002  3.333300e+002
      vertex  1.440530e+001  4.346121e+002  3.663300e+002
    endloop
  endfacet
  facet normal  0.000000e+000 -1.000000e+000  -0.000000e+000
    outer loop
      vertex  1.440530e+001  4.346121e+002  3.663300e+002
      vertex -2.244695e+000  4.346121e+002  3.333300e+002
      vertex  1.440530e+001  4.346121e+002  3.333300e+002
    endloop
  endfacet
  facet normal  2.584879e-001  9.646906e-001  5.055659e-002
    outer loop
      vertex  2.296101e+002  4.309963e+002  3.133300e+002
      vertex  1.960860e+002  4.389309e+002  3.333300e+002
      vertex  2.290860e+002  4.300886e+002  3.333300e+002
    endloop
  endfacet
  facet normal  0.000000e+000  0.000000e+000 -1.000000e+000
    outer loop
      vertex  2.025860e+002  3.841892e+002  3.333300e+002
      vertex  2.290860e+002  4.300886e+002  3.333300e+002
      vertex  2.170053e+002  3.758642e+002  3.333300e+002
    endloop
  endfacet
  facet normal  0.000000e+000  0.000000e+000 -1.000000e+000
    outer loop
      vertex  2.170053e+002  3.758642e+002  3.333300e+002
      vertex  2.290860e+002  4.300886e+002  3.333300e+002
      vertex  2.435053e+002  4.217635e+002  3.333300e+002
    endloop
  endfacet
  facet normal  8.660253e-001 -5.000001e-001  3.828944e-007
    outer loop
      vertex  2.296101e+002  4.309963e+002  3.133300e+002
      vertex  2.290860e+002  4.300886e+002  3.333300e+002
      vertex  2.025860e+002  3.841892e+002  3.133300e+002
    endloop
  endfacet
  facet normal  8.660254e-001 -4.999999e-001  0.000000e+000
    outer loop
      vertex  2.025860e+002  3.841892e+002  3.133300e+002
      vertex  2.290860e+002  4.300886e+002  3.333300e+002
      vertex  2.025860e+002  3.841892e+002  3.333300e+002
    endloop
  endfacet
  facet normal -4.488624e-001  2.591509e-001 -8.551979e-001
    outer loop
      vertex  2.296101e+002  4.309963e+002  3.133300e+002
      vertex  2.025860e+002  3.841892e+002  3.133300e+002
      vertex  1.960860e+002  4.389309e+002  3.333300e+002
    endloop
  endfacet
  facet normal -4.488625e-001  2.591508e-001 -8.551978e-001
    outer loop
      vertex  1.960860e+002  4.389309e+002  3.333300e+002
      vertex  2.025860e+002  3.841892e+002  3.133300e+002
      vertex  1.695860e+002  3.930315e+002  3.333300e+002
    endloop
  endfacet
  facet normal  0.000000e+000  0.000000e+000 -1.000000e+000
    outer loop
      vertex  4.740530e+001  4.257697e+002  3.333300e+002
      vertex  4.740530e+001  4.787697e+002  3.333300e+002
      vertex  8.582942e+001  4.684740e+002  3.333300e+002
    endloop
  endfacet
  facet normal  0.000000e+000  -0.000000e+000 -1.000000e+000
    outer loop
      vertex  4.740530e+001  4.257697e+002  3.333300e+002
      vertex  8.582942e+001  4.684740e+002  3.333300e+002
      vertex  1.576619e+002  4.492266e+002  3.333300e+002
    endloop
  endfacet
  facet normal  0.000000e+000  -0.000000e+000 -9.999999e-001
    outer loop
      vertex  4.740530e+001  4.257697e+002  3.333300e+002
      vertex  1.576619e+002  4.492266e+002  3.333300e+002
      vertex  1.960860e+002  4.389309e+002  3.333300e+002
    endloop
  endfacet
  facet normal  0.000000e+000  0.000000e+000 -1.000000e+000
    outer loop
      vertex  4.740530e+001  4.257697e+002  3.333300e+002
      vertex  1.960860e+002  4.389309e+002  3.333300e+002
      vertex  1.695860e+002  3.930315e+002  3.333300e+002
    endloop
  endfacet
  facet normal  2.584879e-001  9.646906e-001  5.055735e-002
    outer loop
      vertex  4.740530e+001  4.787697e+002  3.333300e+002
      vertex  1.440530e+001  4.886602e+002  3.133300e+002
      vertex  1.440530e+001  4.876121e+002  3.333300e+002
    endloop
  endfacet
  facet normal  5.183017e-001  0.000000e+000 -8.551978e-001
    outer loop
      vertex  1.440530e+001  4.886602e+002  3.133300e+002
      vertex  4.740530e+001  4.787697e+002  3.333300e+002
      vertex  1.440530e+001  4.346121e+002  3.133300e+002
    endloop
  endfacet
  facet normal  5.183017e-001  0.000000e+000 -8.551978e-001
    outer loop
      vertex  1.440530e+001  4.346121e+002  3.133300e+002
      vertex  4.740530e+001  4.787697e+002  3.333300e+002
      vertex  4.740530e+001  4.257697e+002  3.333300e+002
    endloop
  endfacet
  facet normal  2.588189e-001  9.659259e-001 -1.759460e-007
    outer loop
      vertex  2.226316e+002  4.318180e+002  3.663300e+002
      vertex  2.290860e+002  4.300886e+002  3.333300e+002
      vertex  1.960860e+002  4.389309e+002  3.333300e+002
    endloop
  endfacet
  facet normal  2.588191e-001  9.659258e-001 -4.417022e-007
    outer loop
      vertex  2.226316e+002  4.318180e+002  3.663300e+002
      vertex  1.960860e+002  4.389309e+002  3.333300e+002
      vertex  1.576619e+002  4.492266e+002  3.333300e+002
    endloop
  endfacet
  facet normal  2.588189e-001  9.659259e-001  0.000000e+000
    outer loop
      vertex  2.226316e+002  4.318180e+002  3.663300e+002
      vertex  1.576619e+002  4.492266e+002  3.333300e+002
      vertex  8.582942e+001  4.684740e+002  3.333300e+002
    endloop
  endfacet
  facet normal  2.588191e-001  9.659258e-001 -8.369095e-007
    outer loop
      vertex  2.226316e+002  4.318180e+002  3.663300e+002
      vertex  8.582942e+001  4.684740e+002  3.333300e+002
      vertex  4.740530e+001  4.787697e+002  3.333300e+002
    endloop
  endfacet
  facet normal  2.588189e-001  9.659259e-001  7.579212e-007
    outer loop
      vertex  2.226316e+002  4.318180e+002  3.663300e+002
      vertex  4.740530e+001  4.787697e+002  3.333300e+002
      vertex  1.440530e+001  4.876121e+002  3.333300e+002
    endloop
  endfacet
  facet normal  2.588191e-001  9.659258e-001 -7.570342e-007
    outer loop
      vertex  2.226316e+002  4.318180e+002  3.663300e+002
      vertex  1.440530e+001  4.876121e+002  3.333300e+002
      vertex  2.085973e+001  4.858826e+002  3.663300e+002
    endloop
  endfacet
  facet normal  4.993152e-001  8.648383e-001  5.233595e-002
    outer loop
      vertex  2.290860e+002  4.300886e+002  3.333300e+002
      vertex  2.226316e+002  4.318180e+002  3.663300e+002
      vertex  2.435053e+002  4.217635e+002  3.333300e+002
    endloop
  endfacet
  facet normal  4.993149e-001  8.648385e-001  5.233568e-002
    outer loop
      vertex  2.435053e+002  4.217635e+002  3.333300e+002
      vertex  2.226316e+002  4.318180e+002  3.663300e+002
      vertex  2.426406e+002  4.202658e+002  3.663300e+002
    endloop
  endfacet
  facet normal  8.660253e-001 -5.000000e-001  2.164460e-007
    outer loop
      vertex  2.426406e+002  4.202658e+002  3.663300e+002
      vertex  2.170053e+002  3.758642e+002  3.663300e+002
      vertex  2.435053e+002  4.217635e+002  3.333300e+002
    endloop
  endfacet
  facet normal  8.660253e-001 -5.000002e-001  0.000000e+000
    outer loop
      vertex  2.435053e+002  4.217635e+002  3.333300e+002
      vertex  2.170053e+002  3.758642e+002  3.663300e+002
      vertex  2.170053e+002  3.758642e+002  3.333300e+002
    endloop
  endfacet
  facet normal -2.588189e-001 -9.659259e-001  0.000000e+000
    outer loop
      vertex  1.440530e+001  4.346121e+002  3.333300e+002
      vertex  4.740530e+001  4.257697e+002  3.333300e+002
      vertex  1.440530e+001  4.346121e+002  3.663300e+002
    endloop
  endfacet
  facet normal -2.588188e-001 -9.659259e-001  0.000000e+000
    outer loop
      vertex  1.440530e+001  4.346121e+002  3.333300e+002
      vertex  1.440530e+001  4.346121e+002  3.133300e+002
      vertex  4.740530e+001  4.257697e+002  3.333300e+002
    endloop
  endfacet
  facet normal -2.588188e-001 -9.659259e-001  0.000000e+000
    outer loop
      vertex  1.695860e+002  3.930315e+002  3.333300e+002
      vertex  2.025860e+002  3.841892e+002  3.133300e+002
      vertex  2.025860e+002  3.841892e+002  3.333300e+002
    endloop
  endfacet
  facet normal -2.588189e-001 -9.659259e-001  0.000000e+000
    outer loop
      vertex  1.695860e+002  3.930315e+002  3.333300e+002
      vertex  2.025860e+002  3.841892e+002  3.333300e+002
      vertex  2.025860e+002  3.841892e+002  3.663300e+002
    endloop
  endfacet
  facet normal -2.588190e-001 -9.659259e-001  1.708864e-007
    outer loop
      vertex  1.695860e+002  3.930315e+002  3.333300e+002
      vertex  2.025860e+002  3.841892e+002  3.663300e+002
      vertex  1.440530e+001  4.346121e+002  3.663300e+002
    endloop
  endfacet
  facet normal -2.588191e-001 -9.659258e-001 -2.924404e-007
    outer loop
      vertex  1.695860e+002  3.930315e+002  3.333300e+002
      vertex  1.440530e+001  4.346121e+002  3.663300e+002
      vertex  4.740530e+001  4.257697e+002  3.333300e+002
    endloop
  endfacet
  facet normal -1.000000e+000  0.000000e+000  0.000000e+000
    outer loop
      vertex  1.440530e+001  4.886602e+002  3.133300e+002
      vertex  1.440530e+001  4.346121e+002  3.133300e+002
      vertex  1.440530e+001  4.876121e+002  3.333300e+002
    endloop
  endfacet
  facet normal -1.000000e+000  -0.000000e+000  0.000000e+000
    outer loop
      vertex  1.440530e+001  4.876121e+002  3.333300e+002
      vertex  1.440530e+001  4.346121e+002  3.133300e+002
      vertex  1.440530e+001  4.346121e+002  3.333300e+002
    endloop
  endfacet
  facet normal  -0.000000e+000  9.986296e-001  5.233518e-002
    outer loop
      vertex  1.440530e+001  4.876121e+002  3.333300e+002
      vertex -2.244695e+000  4.876121e+002  3.333300e+002
      vertex  2.085973e+001  4.858826e+002  3.663300e+002
    endloop
  endfacet
  facet normal  0.000000e+000  9.986296e-001  5.233518e-002
    outer loop
      vertex  2.085973e+001  4.858826e+002  3.663300e+002
      vertex -2.244695e+000  4.876121e+002  3.333300e+002
      vertex -2.244695e+000  4.858826e+002  3.663300e+002
    endloop
  endfacet
endsolid CATIA STL
