solid CATIA STL
  facet normal  0.000000e+000 -1.000000e+000  0.000000e+000
    outer loop
      vertex -1.675288e+001 -1.399496e+000 -1.214831e+001
      vertex -1.670111e+001 -1.399496e+000 -1.193527e+001
      vertex -1.724966e+001 -1.399496e+000 -1.214831e+001
    endloop
  endfacet
  facet normal  0.000000e+000 -1.000000e+000  0.000000e+000
    outer loop
      vertex -1.724966e+001 -1.399496e+000 -1.214831e+001
      vertex -1.670111e+001 -1.399496e+000 -1.193527e+001
      vertex -1.667050e+001 -1.399496e+000 -1.169993e+001
    endloop
  endfacet
  facet normal  -0.000000e+000 -1.000000e+000  0.000000e+000
    outer loop
      vertex -1.724966e+001 -1.399496e+000 -1.214831e+001
      vertex -1.667050e+001 -1.399496e+000 -1.169993e+001
      vertex -1.724966e+001 -1.399496e+000 -1.103980e+001
    endloop
  endfacet
  facet normal  0.000000e+000 -1.000000e+000  0.000000e+000
    outer loop
      vertex -1.724966e+001 -1.399496e+000 -1.103980e+001
      vertex -1.667050e+001 -1.399496e+000 -1.169993e+001
      vertex -1.667128e+001 -1.399496e+000 -1.147651e+001
    endloop
  endfacet
  facet normal  0.000000e+000 -1.000000e+000  0.000000e+000
    outer loop
      vertex -1.724966e+001 -1.399496e+000 -1.103980e+001
      vertex -1.667128e+001 -1.399496e+000 -1.147651e+001
      vertex -1.675288e+001 -1.399496e+000 -1.103980e+001
    endloop
  endfacet
  facet normal  0.000000e+000 -1.000000e+000  0.000000e+000
    outer loop
      vertex -1.675288e+001 -1.399496e+000 -1.103980e+001
      vertex -1.667128e+001 -1.399496e+000 -1.147651e+001
      vertex -1.669731e+001 -1.399496e+000 -1.127301e+001
    endloop
  endfacet
  facet normal  1.000000e+000  0.000000e+000  0.000000e+000
    outer loop
      vertex -1.666466e+001 -3.371453e-001 -1.064385e+001
      vertex -1.666466e+001 -5.244874e-001 -1.064214e+001
      vertex -1.666466e+001 -1.537366e-001 -1.068208e+001
    endloop
  endfacet
  facet normal  1.000000e+000  0.000000e+000  0.000000e+000
    outer loop
      vertex -1.666466e+001 -1.537366e-001 -1.068208e+001
      vertex -1.666466e+001 -5.244874e-001 -1.064214e+001
      vertex -1.666466e+001 -7.085632e-001 -1.067702e+001
    endloop
  endfacet
  facet normal  1.000000e+000  0.000000e+000  0.000000e+000
    outer loop
      vertex -1.666466e+001 -1.537366e-001 -1.068208e+001
      vertex -1.666466e+001 -7.085632e-001 -1.067702e+001
      vertex -1.666466e+001  1.869060e-002 -1.075535e+001
    endloop
  endfacet
  facet normal  1.000000e+000  0.000000e+000  0.000000e+000
    outer loop
      vertex -1.666466e+001  1.869060e-002 -1.075535e+001
      vertex -1.666466e+001 -7.085632e-001 -1.067702e+001
      vertex -1.666466e+001 -8.822990e-001 -1.074713e+001
    endloop
  endfacet
  facet normal  1.000000e+000  0.000000e+000  0.000000e+000
    outer loop
      vertex -1.666466e+001  1.869060e-002 -1.075535e+001
      vertex -1.666466e+001 -8.822990e-001 -1.074713e+001
      vertex -1.666466e+001  1.735099e-001 -1.086085e+001
    endloop
  endfacet
  facet normal  1.000000e+000  0.000000e+000  0.000000e+000
    outer loop
      vertex -1.666466e+001  1.735099e-001 -1.086085e+001
      vertex -1.666466e+001 -8.822990e-001 -1.074713e+001
      vertex -1.666466e+001 -1.039018e+000 -1.084979e+001
    endloop
  endfacet
  facet normal  1.000000e+000  0.000000e+000  0.000000e+000
    outer loop
      vertex -1.666466e+001  1.735099e-001 -1.086085e+001
      vertex -1.666466e+001 -1.039018e+000 -1.084979e+001
      vertex -1.666466e+001  3.047718e-001 -1.099453e+001
    endloop
  endfacet
  facet normal  1.000000e+000  0.000000e+000  0.000000e+000
    outer loop
      vertex -1.666466e+001  3.047718e-001 -1.099453e+001
      vertex -1.666466e+001 -1.039018e+000 -1.084979e+001
      vertex -1.666466e+001 -1.172698e+000 -1.098105e+001
    endloop
  endfacet
  facet normal  1.000000e+000  0.000000e+000  0.000000e+000
    outer loop
      vertex -1.666466e+001  3.047718e-001 -1.099453e+001
      vertex -1.666466e+001 -1.172698e+000 -1.098105e+001
      vertex -1.666466e+001  4.074318e-001 -1.115125e+001
    endloop
  endfacet
  facet normal  1.000000e+000  0.000000e+000  0.000000e+000
    outer loop
      vertex -1.666466e+001  4.074318e-001 -1.115125e+001
      vertex -1.666466e+001 -1.172698e+000 -1.098105e+001
      vertex -1.666466e+001 -1.278201e+000 -1.113587e+001
    endloop
  endfacet
  facet normal  1.000000e+000  0.000000e+000  0.000000e+000
    outer loop
      vertex -1.666466e+001  4.074318e-001 -1.115125e+001
      vertex -1.666466e+001 -1.278201e+000 -1.113587e+001
      vertex -1.666466e+001  4.775449e-001 -1.132499e+001
    endloop
  endfacet
  facet normal  1.000000e+000  0.000000e+000  0.000000e+000
    outer loop
      vertex -1.666466e+001  4.775449e-001 -1.132499e+001
      vertex -1.666466e+001 -1.278201e+000 -1.113587e+001
      vertex -1.666466e+001 -1.351473e+000 -1.130830e+001
    endloop
  endfacet
  facet normal  1.000000e+000  0.000000e+000  0.000000e+000
    outer loop
      vertex -1.666466e+001  4.775449e-001 -1.132499e+001
      vertex -1.666466e+001 -1.351473e+000 -1.130830e+001
      vertex -1.666466e+001  5.124166e-001 -1.150906e+001
    endloop
  endfacet
  facet normal  1.000000e+000  0.000000e+000  0.000000e+000
    outer loop
      vertex -1.666466e+001  5.124166e-001 -1.150906e+001
      vertex -1.666466e+001 -1.351473e+000 -1.130830e+001
      vertex -1.666466e+001 -1.389699e+000 -1.149170e+001
    endloop
  endfacet
  facet normal  1.000000e+000  0.000000e+000  0.000000e+000
    outer loop
      vertex -1.666466e+001  5.124166e-001 -1.150906e+001
      vertex -1.666466e+001 -1.389699e+000 -1.149170e+001
      vertex -1.666466e+001  5.107068e-001 -1.169641e+001
    endloop
  endfacet
  facet normal  1.000000e+000  0.000000e+000  0.000000e+000
    outer loop
      vertex -1.666466e+001  5.107068e-001 -1.169641e+001
      vertex -1.666466e+001 -1.389699e+000 -1.149170e+001
      vertex -1.666466e+001 -1.391409e+000 -1.167905e+001
    endloop
  endfacet
  facet normal  1.000000e+000  0.000000e+000  0.000000e+000
    outer loop
      vertex -1.666466e+001  5.107068e-001 -1.169641e+001
      vertex -1.666466e+001 -1.391409e+000 -1.167905e+001
      vertex -1.666466e+001  4.724813e-001 -1.187982e+001
    endloop
  endfacet
  facet normal  1.000000e+000  0.000000e+000  0.000000e+000
    outer loop
      vertex -1.666466e+001  4.724813e-001 -1.187982e+001
      vertex -1.666466e+001 -1.391409e+000 -1.167905e+001
      vertex -1.666466e+001 -1.356537e+000 -1.186312e+001
    endloop
  endfacet
  facet normal  1.000000e+000  0.000000e+000  0.000000e+000
    outer loop
      vertex -1.666466e+001  4.724813e-001 -1.187982e+001
      vertex -1.666466e+001 -1.356537e+000 -1.186312e+001
      vertex -1.666466e+001  3.992090e-001 -1.205224e+001
    endloop
  endfacet
  facet normal  1.000000e+000  0.000000e+000  0.000000e+000
    outer loop
      vertex -1.666466e+001  3.992090e-001 -1.205224e+001
      vertex -1.666466e+001 -1.356537e+000 -1.186312e+001
      vertex -1.666466e+001 -1.286424e+000 -1.203686e+001
    endloop
  endfacet
  facet normal  1.000000e+000  0.000000e+000  0.000000e+000
    outer loop
      vertex -1.666466e+001  3.992090e-001 -1.205224e+001
      vertex -1.666466e+001 -1.286424e+000 -1.203686e+001
      vertex -1.666466e+001  2.937057e-001 -1.220706e+001
    endloop
  endfacet
  facet normal  1.000000e+000  0.000000e+000  0.000000e+000
    outer loop
      vertex -1.666466e+001  2.937057e-001 -1.220706e+001
      vertex -1.666466e+001 -1.286424e+000 -1.203686e+001
      vertex -1.666466e+001 -1.183764e+000 -1.219358e+001
    endloop
  endfacet
  facet normal  9.999999e-001  0.000000e+000  0.000000e+000
    outer loop
      vertex -1.666466e+001  2.937057e-001 -1.220706e+001
      vertex -1.666466e+001 -1.183764e+000 -1.219358e+001
      vertex -1.666466e+001  1.600259e-001 -1.233832e+001
    endloop
  endfacet
  facet normal  1.000000e+000  0.000000e+000  0.000000e+000
    outer loop
      vertex -1.666466e+001  1.600259e-001 -1.233832e+001
      vertex -1.666466e+001 -1.183764e+000 -1.219358e+001
      vertex -1.666466e+001 -1.052502e+000 -1.232726e+001
    endloop
  endfacet
  facet normal  1.000000e+000  0.000000e+000  0.000000e+000
    outer loop
      vertex -1.666466e+001  1.600259e-001 -1.233832e+001
      vertex -1.666466e+001 -1.052502e+000 -1.232726e+001
      vertex -1.666466e+001  3.306837e-003 -1.244098e+001
    endloop
  endfacet
  facet normal  1.000000e+000  0.000000e+000  0.000000e+000
    outer loop
      vertex -1.666466e+001  3.306837e-003 -1.244098e+001
      vertex -1.666466e+001 -1.052502e+000 -1.232726e+001
      vertex -1.666466e+001 -8.976827e-001 -1.243276e+001
    endloop
  endfacet
  facet normal  1.000000e+000  0.000000e+000  0.000000e+000
    outer loop
      vertex -1.666466e+001  3.306837e-003 -1.244098e+001
      vertex -1.666466e+001 -8.976827e-001 -1.243276e+001
      vertex -1.666466e+001 -1.704289e-001 -1.251110e+001
    endloop
  endfacet
  facet normal  1.000000e+000  0.000000e+000  0.000000e+000
    outer loop
      vertex -1.666466e+001 -1.704289e-001 -1.251110e+001
      vertex -1.666466e+001 -8.976827e-001 -1.243276e+001
      vertex -1.666466e+001 -7.252556e-001 -1.250603e+001
    endloop
  endfacet
  facet normal  1.000000e+000  0.000000e+000  0.000000e+000
    outer loop
      vertex -1.666466e+001 -1.704289e-001 -1.251110e+001
      vertex -1.666466e+001 -7.252556e-001 -1.250603e+001
      vertex -1.666466e+001 -3.545048e-001 -1.254597e+001
    endloop
  endfacet
  facet normal  1.000000e+000  0.000000e+000  0.000000e+000
    outer loop
      vertex -1.666466e+001 -3.545048e-001 -1.254597e+001
      vertex -1.666466e+001 -7.252556e-001 -1.250603e+001
      vertex -1.666466e+001 -5.418468e-001 -1.254426e+001
    endloop
  endfacet
  facet normal  8.394662e-001 -3.071383e-001 -4.482885e-001
    outer loop
      vertex -1.666730e+001 -8.998728e-001 -1.243677e+001
      vertex -1.666466e+001 -1.052502e+000 -1.232726e+001
      vertex -1.667790e+001 -1.084110e+000 -1.233040e+001
    endloop
  endfacet
  facet normal  8.649148e-001 -2.826478e-001 -4.147683e-001
    outer loop
      vertex -1.666730e+001 -8.998728e-001 -1.243677e+001
      vertex -1.666466e+001 -8.976827e-001 -1.243276e+001
      vertex -1.666466e+001 -1.052502e+000 -1.232726e+001
    endloop
  endfacet
  facet normal  8.649537e-001  1.962746e-001  4.618783e-001
    outer loop
      vertex -1.666730e+001  2.088063e-002 -1.075134e+001
      vertex -1.666466e+001 -1.537366e-001 -1.068208e+001
      vertex -1.666466e+001  1.869060e-002 -1.075535e+001
    endloop
  endfacet
  facet normal  8.585634e-001  2.001956e-001  4.720069e-001
    outer loop
      vertex -1.666730e+001  2.088063e-002 -1.075134e+001
      vertex -1.668192e+001 -1.528008e-001 -1.065107e+001
      vertex -1.666466e+001 -1.537366e-001 -1.068208e+001
    endloop
  endfacet
  facet normal  8.684043e-001 -4.045173e-001  2.867746e-001
    outer loop
      vertex -1.675288e+001 -1.399496e+000 -1.103980e+001
      vertex -1.666466e+001 -1.278201e+000 -1.113587e+001
      vertex -1.669731e+001 -1.197530e+000 -1.092319e+001
    endloop
  endfacet
  facet normal  8.616493e-001 -4.641143e-001  2.053252e-001
    outer loop
      vertex -1.675288e+001 -1.399496e+000 -1.103980e+001
      vertex -1.669731e+001 -1.399496e+000 -1.127301e+001
      vertex -1.666466e+001 -1.278201e+000 -1.113587e+001
    endloop
  endfacet
  facet normal  8.817611e-001 -3.365703e-001 -3.304811e-001
    outer loop
      vertex -1.666466e+001 -1.052502e+000 -1.232726e+001
      vertex -1.666466e+001 -1.183764e+000 -1.219358e+001
      vertex -1.667790e+001 -1.084110e+000 -1.233040e+001
    endloop
  endfacet
  facet normal  8.409802e-001 -5.298944e-001 -1.093816e-001
    outer loop
      vertex -1.666466e+001 -1.356537e+000 -1.186312e+001
      vertex -1.667050e+001 -1.399496e+000 -1.169993e+001
      vertex -1.670111e+001 -1.399496e+000 -1.193527e+001
    endloop
  endfacet
  facet normal  8.779206e-001 -4.440129e-001 -1.791866e-001
    outer loop
      vertex -1.666466e+001 -1.356537e+000 -1.186312e+001
      vertex -1.670111e+001 -1.399496e+000 -1.193527e+001
      vertex -1.666466e+001 -1.286424e+000 -1.203686e+001
    endloop
  endfacet
  facet normal  8.320990e-001 -5.546041e-001  5.061701e-003
    outer loop
      vertex -1.666466e+001 -1.391409e+000 -1.167905e+001
      vertex -1.666466e+001 -1.389699e+000 -1.149170e+001
      vertex -1.667128e+001 -1.399496e+000 -1.147651e+001
    endloop
  endfacet
  facet normal  8.071415e-001 -5.903513e-001  2.818294e-003
    outer loop
      vertex -1.667128e+001 -1.399496e+000 -1.147651e+001
      vertex -1.667050e+001 -1.399496e+000 -1.169993e+001
      vertex -1.666466e+001 -1.391409e+000 -1.167905e+001
    endloop
  endfacet
  facet normal  8.287699e-001 -3.665406e-001  4.228338e-001
    outer loop
      vertex -1.666466e+001 -1.039018e+000 -1.084979e+001
      vertex -1.667128e+001 -1.021294e+000 -1.082144e+001
      vertex -1.669731e+001 -1.197530e+000 -1.092319e+001
    endloop
  endfacet
  facet normal  8.738163e-001 -3.406828e-001  3.469587e-001
    outer loop
      vertex -1.666466e+001 -1.039018e+000 -1.084979e+001
      vertex -1.669731e+001 -1.197530e+000 -1.092319e+001
      vertex -1.666466e+001 -1.172698e+000 -1.098105e+001
    endloop
  endfacet
  facet normal  8.518287e-001 -4.328662e-001  2.949829e-001
    outer loop
      vertex -1.669731e+001 -1.197530e+000 -1.092319e+001
      vertex -1.666466e+001 -1.278201e+000 -1.113587e+001
      vertex -1.666466e+001 -1.172698e+000 -1.098105e+001
    endloop
  endfacet
  facet normal  6.459367e-001 -3.836470e-001  6.599855e-001
    outer loop
      vertex -1.666466e+001 -8.822990e-001 -1.074713e+001
      vertex -1.667050e+001 -8.278091e-001 -1.070974e+001
      vertex -1.667128e+001 -1.021294e+000 -1.082144e+001
    endloop
  endfacet
  facet normal  9.039466e-001 -2.343325e-001  3.577274e-001
    outer loop
      vertex -1.666466e+001 -8.822990e-001 -1.074713e+001
      vertex -1.667128e+001 -1.021294e+000 -1.082144e+001
      vertex -1.666466e+001 -1.039018e+000 -1.084979e+001
    endloop
  endfacet
  facet normal  8.805550e-001 -8.821679e-002  4.656617e-001
    outer loop
      vertex -1.666466e+001 -7.085632e-001 -1.067702e+001
      vertex -1.666466e+001 -5.244874e-001 -1.064214e+001
      vertex -1.670111e+001 -6.240003e-001 -1.059207e+001
    endloop
  endfacet
  facet normal  8.206466e-001 -1.882525e-001  5.395368e-001
    outer loop
      vertex -1.670111e+001 -6.240003e-001 -1.059207e+001
      vertex -1.667050e+001 -8.278091e-001 -1.070974e+001
      vertex -1.666466e+001 -7.085632e-001 -1.067702e+001
    endloop
  endfacet
  facet normal  8.705660e-001  1.003939e-001  4.817013e-001
    outer loop
      vertex -1.666466e+001 -1.537366e-001 -1.068208e+001
      vertex -1.668192e+001 -1.528008e-001 -1.065107e+001
      vertex -1.666466e+001 -3.371453e-001 -1.064385e+001
    endloop
  endfacet
  facet normal  8.966581e-001 -4.349871e-001 -8.240533e-002
    outer loop
      vertex -1.667050e+001 -1.399496e+000 -1.169993e+001
      vertex -1.666466e+001 -1.356537e+000 -1.186312e+001
      vertex -1.666466e+001 -1.391409e+000 -1.167905e+001
    endloop
  endfacet
  facet normal  9.255688e-001 -1.416783e-001  3.510695e-001
    outer loop
      vertex -1.667050e+001 -8.278091e-001 -1.070974e+001
      vertex -1.666466e+001 -8.822990e-001 -1.074713e+001
      vertex -1.666466e+001 -7.085632e-001 -1.067702e+001
    endloop
  endfacet
  facet normal  8.566594e-001 -5.571006e-002  5.128657e-001
    outer loop
      vertex -1.675288e+001 -4.394961e-001 -1.048554e+001
      vertex -1.670111e+001 -6.240003e-001 -1.059207e+001
      vertex -1.666466e+001 -5.244874e-001 -1.064214e+001
    endloop
  endfacet
  facet normal  8.722706e-001  4.463307e-003  4.890031e-001
    outer loop
      vertex -1.675288e+001 -4.394961e-001 -1.048554e+001
      vertex -1.666466e+001 -5.244874e-001 -1.064214e+001
      vertex -1.666466e+001 -3.371453e-001 -1.064385e+001
    endloop
  endfacet
  facet normal  8.404071e-001  9.956581e-002  5.327313e-001
    outer loop
      vertex -1.675288e+001 -4.394961e-001 -1.048554e+001
      vertex -1.666466e+001 -3.371453e-001 -1.064385e+001
      vertex -1.668192e+001 -1.528008e-001 -1.065107e+001
    endloop
  endfacet
  facet normal  8.237336e-001 -4.173904e-001 -3.837294e-001
    outer loop
      vertex -1.675288e+001 -1.399496e+000 -1.214831e+001
      vertex -1.667790e+001 -1.084110e+000 -1.233040e+001
      vertex -1.666466e+001 -1.183764e+000 -1.219358e+001
    endloop
  endfacet
  facet normal  8.699735e-001 -4.124795e-001 -2.701977e-001
    outer loop
      vertex -1.675288e+001 -1.399496e+000 -1.214831e+001
      vertex -1.666466e+001 -1.183764e+000 -1.219358e+001
      vertex -1.666466e+001 -1.286424e+000 -1.203686e+001
    endloop
  endfacet
  facet normal  8.602043e-001 -4.651315e-001 -2.090480e-001
    outer loop
      vertex -1.675288e+001 -1.399496e+000 -1.214831e+001
      vertex -1.666466e+001 -1.286424e+000 -1.203686e+001
      vertex -1.670111e+001 -1.399496e+000 -1.193527e+001
    endloop
  endfacet
  facet normal  8.964313e-001 -4.280904e-001  1.146706e-001
    outer loop
      vertex -1.667128e+001 -1.399496e+000 -1.147651e+001
      vertex -1.666466e+001 -1.389699e+000 -1.149170e+001
      vertex -1.669731e+001 -1.399496e+000 -1.127301e+001
    endloop
  endfacet
  facet normal  8.566087e-001 -5.051126e-001  1.052742e-001
    outer loop
      vertex -1.669731e+001 -1.399496e+000 -1.127301e+001
      vertex -1.666466e+001 -1.389699e+000 -1.149170e+001
      vertex -1.666466e+001 -1.351473e+000 -1.130830e+001
    endloop
  endfacet
  facet normal  8.713827e-001 -4.515266e-001  1.918744e-001
    outer loop
      vertex -1.669731e+001 -1.399496e+000 -1.127301e+001
      vertex -1.666466e+001 -1.351473e+000 -1.130830e+001
      vertex -1.666466e+001 -1.278201e+000 -1.113587e+001
    endloop
  endfacet
  facet normal  0.000000e+000 -4.999991e-001  8.660259e-001
    outer loop
      vertex -1.675288e+001 -1.399496e+000 -1.103980e+001
      vertex -1.669731e+001 -1.197530e+000 -1.092319e+001
      vertex -1.724966e+001 -1.399496e+000 -1.103980e+001
    endloop
  endfacet
  facet normal  1.471457e-006 -5.000020e-001  8.660242e-001
    outer loop
      vertex -1.724966e+001 -1.399496e+000 -1.103980e+001
      vertex -1.669731e+001 -1.197530e+000 -1.092319e+001
      vertex -1.667128e+001 -1.021294e+000 -1.082144e+001
    endloop
  endfacet
  facet normal -2.556591e-007 -5.000001e-001  8.660253e-001
    outer loop
      vertex -1.724966e+001 -1.399496e+000 -1.103980e+001
      vertex -1.667128e+001 -1.021294e+000 -1.082144e+001
      vertex -1.724966e+001 -4.394961e-001 -1.048554e+001
    endloop
  endfacet
  facet normal  1.148509e-007 -4.999998e-001  8.660256e-001
    outer loop
      vertex -1.724966e+001 -4.394961e-001 -1.048554e+001
      vertex -1.667128e+001 -1.021294e+000 -1.082144e+001
      vertex -1.667050e+001 -8.278091e-001 -1.070974e+001
    endloop
  endfacet
  facet normal  0.000000e+000 -5.000000e-001  8.660254e-001
    outer loop
      vertex -1.724966e+001 -4.394961e-001 -1.048554e+001
      vertex -1.667050e+001 -8.278091e-001 -1.070974e+001
      vertex -1.675288e+001 -4.394961e-001 -1.048554e+001
    endloop
  endfacet
  facet normal -1.315557e-006 -5.000002e-001  8.660254e-001
    outer loop
      vertex -1.675288e+001 -4.394961e-001 -1.048554e+001
      vertex -1.667050e+001 -8.278091e-001 -1.070974e+001
      vertex -1.670111e+001 -6.240003e-001 -1.059207e+001
    endloop
  endfacet
  facet normal  0.000000e+000 -5.000001e-001 -8.660253e-001
    outer loop
      vertex -1.724966e+001 -1.399496e+000 -1.214831e+001
      vertex -1.724966e+001 -4.394961e-001 -1.270257e+001
      vertex -1.675288e+001 -4.394961e-001 -1.270257e+001
    endloop
  endfacet
  facet normal  3.493688e-006 -5.000014e-001 -8.660246e-001
    outer loop
      vertex -1.724966e+001 -1.399496e+000 -1.214831e+001
      vertex -1.675288e+001 -4.394961e-001 -1.270257e+001
      vertex -1.668192e+001 -7.261913e-001 -1.253704e+001
    endloop
  endfacet
  facet normal  8.924098e-007 -4.999999e-001 -8.660255e-001
    outer loop
      vertex -1.724966e+001 -1.399496e+000 -1.214831e+001
      vertex -1.668192e+001 -7.261913e-001 -1.253704e+001
      vertex -1.666730e+001 -8.998728e-001 -1.243677e+001
    endloop
  endfacet
  facet normal -1.455033e-006 -4.999978e-001 -8.660266e-001
    outer loop
      vertex -1.724966e+001 -1.399496e+000 -1.214831e+001
      vertex -1.666730e+001 -8.998728e-001 -1.243677e+001
      vertex -1.667790e+001 -1.084110e+000 -1.233040e+001
    endloop
  endfacet
  facet normal  0.000000e+000 -4.999998e-001 -8.660256e-001
    outer loop
      vertex -1.724966e+001 -1.399496e+000 -1.214831e+001
      vertex -1.667790e+001 -1.084110e+000 -1.233040e+001
      vertex -1.675288e+001 -1.399496e+000 -1.214831e+001
    endloop
  endfacet
  facet normal  8.394672e-001  3.071392e-001  4.482859e-001
    outer loop
      vertex -1.666730e+001  2.088063e-002 -1.075134e+001
      vertex -1.666466e+001  1.735099e-001 -1.086085e+001
      vertex -1.667790e+001  2.051182e-001 -1.085771e+001
    endloop
  endfacet
  facet normal  8.649518e-001  2.826118e-001  4.147156e-001
    outer loop
      vertex -1.666730e+001  2.088063e-002 -1.075134e+001
      vertex -1.666466e+001  1.869060e-002 -1.075535e+001
      vertex -1.666466e+001  1.735099e-001 -1.086085e+001
    endloop
  endfacet
  facet normal  8.649123e-001 -1.963025e-001 -4.619439e-001
    outer loop
      vertex -1.666730e+001 -8.998728e-001 -1.243677e+001
      vertex -1.666466e+001 -7.252556e-001 -1.250603e+001
      vertex -1.666466e+001 -8.976827e-001 -1.243276e+001
    endloop
  endfacet
  facet normal  8.585560e-001 -2.002023e-001 -4.720175e-001
    outer loop
      vertex -1.666730e+001 -8.998728e-001 -1.243677e+001
      vertex -1.668192e+001 -7.261913e-001 -1.253704e+001
      vertex -1.666466e+001 -7.252556e-001 -1.250603e+001
    endloop
  endfacet
  facet normal  8.682957e-001  4.072074e-001 -2.832753e-001
    outer loop
      vertex -1.675288e+001  5.205039e-001 -1.214831e+001
      vertex -1.666466e+001  3.992090e-001 -1.205224e+001
      vertex -1.670111e+001  3.359998e-001 -1.225484e+001
    endloop
  endfacet
  facet normal  8.622085e-001  4.611849e-001 -2.095351e-001
    outer loop
      vertex -1.675288e+001  5.205039e-001 -1.214831e+001
      vertex -1.670111e+001  5.205039e-001 -1.193527e+001
      vertex -1.666466e+001  3.992090e-001 -1.205224e+001
    endloop
  endfacet
  facet normal  8.817611e-001  3.365703e-001  3.304811e-001
    outer loop
      vertex -1.666466e+001  1.735099e-001 -1.086085e+001
      vertex -1.666466e+001  3.047718e-001 -1.099453e+001
      vertex -1.667790e+001  2.051182e-001 -1.085771e+001
    endloop
  endfacet
  facet normal  8.503956e-001  5.147756e-001  1.087818e-001
    outer loop
      vertex -1.666466e+001  4.775449e-001 -1.132499e+001
      vertex -1.667128e+001  5.205039e-001 -1.147651e+001
      vertex -1.669731e+001  5.205039e-001 -1.127301e+001
    endloop
  endfacet
  facet normal  8.759386e-001  4.473670e-001  1.805393e-001
    outer loop
      vertex -1.666466e+001  4.775449e-001 -1.132499e+001
      vertex -1.669731e+001  5.205039e-001 -1.127301e+001
      vertex -1.666466e+001  4.074318e-001 -1.115125e+001
    endloop
  endfacet
  facet normal  8.596110e-001  5.109278e-001 -4.662943e-003
    outer loop
      vertex -1.667050e+001  5.205039e-001 -1.169993e+001
      vertex -1.666466e+001  5.124166e-001 -1.150906e+001
      vertex -1.666466e+001  5.107068e-001 -1.169641e+001
    endloop
  endfacet
  facet normal  7.790406e-001  6.269675e-001  2.720174e-003
    outer loop
      vertex -1.667050e+001  5.205039e-001 -1.169993e+001
      vertex -1.667128e+001  5.205039e-001 -1.147651e+001
      vertex -1.666466e+001  5.124166e-001 -1.150906e+001
    endloop
  endfacet
  facet normal  9.040338e-001  4.199913e-001  7.956427e-002
    outer loop
      vertex -1.666466e+001  5.124166e-001 -1.150906e+001
      vertex -1.667128e+001  5.205039e-001 -1.147651e+001
      vertex -1.666466e+001  4.775449e-001 -1.132499e+001
    endloop
  endfacet
  facet normal  8.092828e-001  3.801128e-001 -4.478568e-001
    outer loop
      vertex -1.666466e+001  1.600259e-001 -1.233832e+001
      vertex -1.667050e+001  1.321909e-001 -1.237251e+001
      vertex -1.670111e+001  3.359998e-001 -1.225484e+001
    endloop
  endfacet
  facet normal  8.680111e-001  3.478914e-001 -3.542999e-001
    outer loop
      vertex -1.666466e+001  1.600259e-001 -1.233832e+001
      vertex -1.670111e+001  3.359998e-001 -1.225484e+001
      vertex -1.666466e+001  2.937057e-001 -1.220706e+001
    endloop
  endfacet
  facet normal  8.615272e-001  4.195550e-001 -2.859100e-001
    outer loop
      vertex -1.670111e+001  3.359998e-001 -1.225484e+001
      vertex -1.666466e+001  3.992090e-001 -1.205224e+001
      vertex -1.666466e+001  2.937057e-001 -1.220706e+001
    endloop
  endfacet
  facet normal  6.289099e-001  3.868356e-001 -6.744112e-001
    outer loop
      vertex -1.666466e+001  3.306837e-003 -1.244098e+001
      vertex -1.667128e+001 -6.129422e-002 -1.248421e+001
      vertex -1.667050e+001  1.321909e-001 -1.237251e+001
    endloop
  endfacet
  facet normal  9.160135e-001  2.198126e-001 -3.355619e-001
    outer loop
      vertex -1.666466e+001  3.306837e-003 -1.244098e+001
      vertex -1.667050e+001  1.321909e-001 -1.237251e+001
      vertex -1.666466e+001  1.600259e-001 -1.233832e+001
    endloop
  endfacet
  facet normal  9.232402e-001  1.437904e-001 -3.563030e-001
    outer loop
      vertex -1.667128e+001 -6.129422e-002 -1.248421e+001
      vertex -1.666466e+001  3.306837e-003 -1.244098e+001
      vertex -1.666466e+001 -1.704289e-001 -1.251110e+001
    endloop
  endfacet
  facet normal  8.818482e-001  8.776809e-002 -4.632932e-001
    outer loop
      vertex -1.666466e+001 -1.704289e-001 -1.251110e+001
      vertex -1.666466e+001 -3.545048e-001 -1.254597e+001
      vertex -1.669731e+001 -2.375301e-001 -1.258596e+001
    endloop
  endfacet
  facet normal  8.325047e-001  1.796163e-001 -5.240933e-001
    outer loop
      vertex -1.669731e+001 -2.375301e-001 -1.258596e+001
      vertex -1.667128e+001 -6.129422e-002 -1.248421e+001
      vertex -1.666466e+001 -1.704289e-001 -1.251110e+001
    endloop
  endfacet
  facet normal  8.705594e-001 -1.003962e-001 -4.817125e-001
    outer loop
      vertex -1.666466e+001 -7.252556e-001 -1.250603e+001
      vertex -1.668192e+001 -7.261913e-001 -1.253704e+001
      vertex -1.666466e+001 -5.418468e-001 -1.254426e+001
    endloop
  endfacet
  facet normal  8.546907e-001  6.237951e-002 -5.153763e-001
    outer loop
      vertex -1.675288e+001 -4.394961e-001 -1.270257e+001
      vertex -1.669731e+001 -2.375301e-001 -1.258596e+001
      vertex -1.666466e+001 -3.545048e-001 -1.254597e+001
    endloop
  endfacet
  facet normal  8.722706e-001 -4.463308e-003 -4.890031e-001
    outer loop
      vertex -1.675288e+001 -4.394961e-001 -1.270257e+001
      vertex -1.666466e+001 -3.545048e-001 -1.254597e+001
      vertex -1.666466e+001 -5.418468e-001 -1.254426e+001
    endloop
  endfacet
  facet normal  8.404060e-001 -9.956851e-002 -5.327324e-001
    outer loop
      vertex -1.675288e+001 -4.394961e-001 -1.270257e+001
      vertex -1.666466e+001 -5.418468e-001 -1.254426e+001
      vertex -1.668192e+001 -7.261913e-001 -1.253704e+001
    endloop
  endfacet
  facet normal  8.237335e-001  4.173905e-001  3.837295e-001
    outer loop
      vertex -1.675288e+001  5.205039e-001 -1.103980e+001
      vertex -1.667790e+001  2.051182e-001 -1.085771e+001
      vertex -1.666466e+001  3.047718e-001 -1.099453e+001
    endloop
  endfacet
  facet normal  8.699728e-001  4.124796e-001  2.701994e-001
    outer loop
      vertex -1.675288e+001  5.205039e-001 -1.103980e+001
      vertex -1.666466e+001  3.047718e-001 -1.099453e+001
      vertex -1.666466e+001  4.074318e-001 -1.115125e+001
    endloop
  endfacet
  facet normal  8.593183e-001  4.686590e-001  2.047698e-001
    outer loop
      vertex -1.675288e+001  5.205039e-001 -1.103980e+001
      vertex -1.666466e+001  4.074318e-001 -1.115125e+001
      vertex -1.669731e+001  5.205039e-001 -1.127301e+001
    endloop
  endfacet
  facet normal  8.707342e-001  4.785353e-001 -1.132515e-001
    outer loop
      vertex -1.667050e+001  5.205039e-001 -1.169993e+001
      vertex -1.666466e+001  5.107068e-001 -1.169641e+001
      vertex -1.670111e+001  5.205039e-001 -1.193527e+001
    endloop
  endfacet
  facet normal  8.480147e-001  5.188243e-001 -1.081319e-001
    outer loop
      vertex -1.670111e+001  5.205039e-001 -1.193527e+001
      vertex -1.666466e+001  5.107068e-001 -1.169641e+001
      vertex -1.666466e+001  4.724813e-001 -1.187982e+001
    endloop
  endfacet
  facet normal  8.750071e-001  4.455500e-001 -1.893348e-001
    outer loop
      vertex -1.670111e+001  5.205039e-001 -1.193527e+001
      vertex -1.666466e+001  4.724813e-001 -1.187982e+001
      vertex -1.666466e+001  3.992090e-001 -1.205224e+001
    endloop
  endfacet
  facet normal  -0.000000e+000  5.000001e-001  8.660253e-001
    outer loop
      vertex -1.724966e+001  5.205039e-001 -1.103980e+001
      vertex -1.724966e+001 -4.394961e-001 -1.048554e+001
      vertex -1.675288e+001 -4.394961e-001 -1.048554e+001
    endloop
  endfacet
  facet normal -3.677570e-007  4.999999e-001  8.660254e-001
    outer loop
      vertex -1.724966e+001  5.205039e-001 -1.103980e+001
      vertex -1.675288e+001 -4.394961e-001 -1.048554e+001
      vertex -1.668192e+001 -1.528008e-001 -1.065107e+001
    endloop
  endfacet
  facet normal -2.974700e-007  5.000001e-001  8.660254e-001
    outer loop
      vertex -1.724966e+001  5.205039e-001 -1.103980e+001
      vertex -1.668192e+001 -1.528008e-001 -1.065107e+001
      vertex -1.666730e+001  2.088063e-002 -1.075134e+001
    endloop
  endfacet
  facet normal  1.075457e-006  5.000013e-001  8.660247e-001
    outer loop
      vertex -1.724966e+001  5.205039e-001 -1.103980e+001
      vertex -1.666730e+001  2.088063e-002 -1.075134e+001
      vertex -1.667790e+001  2.051182e-001 -1.085771e+001
    endloop
  endfacet
  facet normal  0.000000e+000  4.999998e-001  8.660256e-001
    outer loop
      vertex -1.724966e+001  5.205039e-001 -1.103980e+001
      vertex -1.667790e+001  2.051182e-001 -1.085771e+001
      vertex -1.675288e+001  5.205039e-001 -1.103980e+001
    endloop
  endfacet
  facet normal  0.000000e+000  4.999999e-001 -8.660254e-001
    outer loop
      vertex -1.675288e+001  5.205039e-001 -1.214831e+001
      vertex -1.670111e+001  3.359998e-001 -1.225484e+001
      vertex -1.724966e+001  5.205039e-001 -1.214831e+001
    endloop
  endfacet
  facet normal  3.039241e-008  5.000000e-001 -8.660254e-001
    outer loop
      vertex -1.724966e+001  5.205039e-001 -1.214831e+001
      vertex -1.670111e+001  3.359998e-001 -1.225484e+001
      vertex -1.667050e+001  1.321909e-001 -1.237251e+001
    endloop
  endfacet
  facet normal  1.392626e-007  5.000001e-001 -8.660254e-001
    outer loop
      vertex -1.724966e+001  5.205039e-001 -1.214831e+001
      vertex -1.667050e+001  1.321909e-001 -1.237251e+001
      vertex -1.724966e+001 -4.394961e-001 -1.270257e+001
    endloop
  endfacet
  facet normal  5.202971e-007  4.999998e-001 -8.660256e-001
    outer loop
      vertex -1.724966e+001 -4.394961e-001 -1.270257e+001
      vertex -1.667050e+001  1.321909e-001 -1.237251e+001
      vertex -1.667128e+001 -6.129422e-002 -1.248421e+001
    endloop
  endfacet
  facet normal  0.000000e+000  5.000004e-001 -8.660252e-001
    outer loop
      vertex -1.724966e+001 -4.394961e-001 -1.270257e+001
      vertex -1.667128e+001 -6.129422e-002 -1.248421e+001
      vertex -1.675288e+001 -4.394961e-001 -1.270257e+001
    endloop
  endfacet
  facet normal  3.911506e-005  4.999940e-001 -8.660288e-001
    outer loop
      vertex -1.675288e+001 -4.394961e-001 -1.270257e+001
      vertex -1.667128e+001 -6.129422e-002 -1.248421e+001
      vertex -1.669731e+001 -2.375301e-001 -1.258596e+001
    endloop
  endfacet
  facet normal  0.000000e+000  9.999999e-001  0.000000e+000
    outer loop
      vertex -1.675288e+001  5.205039e-001 -1.103980e+001
      vertex -1.669731e+001  5.205039e-001 -1.127301e+001
      vertex -1.724966e+001  5.205039e-001 -1.103980e+001
    endloop
  endfacet
  facet normal  0.000000e+000  1.000000e+000  0.000000e+000
    outer loop
      vertex -1.724966e+001  5.205039e-001 -1.103980e+001
      vertex -1.669731e+001  5.205039e-001 -1.127301e+001
      vertex -1.667128e+001  5.205039e-001 -1.147651e+001
    endloop
  endfacet
  facet normal  0.000000e+000  1.000000e+000  0.000000e+000
    outer loop
      vertex -1.724966e+001  5.205039e-001 -1.103980e+001
      vertex -1.667128e+001  5.205039e-001 -1.147651e+001
      vertex -1.724966e+001  5.205039e-001 -1.214831e+001
    endloop
  endfacet
  facet normal  0.000000e+000  1.000000e+000  0.000000e+000
    outer loop
      vertex -1.724966e+001  5.205039e-001 -1.214831e+001
      vertex -1.667128e+001  5.205039e-001 -1.147651e+001
      vertex -1.667050e+001  5.205039e-001 -1.169993e+001
    endloop
  endfacet
  facet normal  0.000000e+000  1.000000e+000  0.000000e+000
    outer loop
      vertex -1.724966e+001  5.205039e-001 -1.214831e+001
      vertex -1.667050e+001  5.205039e-001 -1.169993e+001
      vertex -1.675288e+001  5.205039e-001 -1.214831e+001
    endloop
  endfacet
  facet normal  0.000000e+000  1.000000e+000  0.000000e+000
    outer loop
      vertex -1.675288e+001  5.205039e-001 -1.214831e+001
      vertex -1.667050e+001  5.205039e-001 -1.169993e+001
      vertex -1.670111e+001  5.205039e-001 -1.193527e+001
    endloop
  endfacet
  facet normal  -0.000000e+000  9.951848e-001  9.801683e-002
    outer loop
      vertex -1.724966e+001  7.305039e-001 -1.159406e+001
      vertex -1.832966e+001  7.305039e-001 -1.159406e+001
      vertex -1.724966e+001  7.080227e-001 -1.136580e+001
    endloop
  endfacet
  facet normal  0.000000e+000  9.951848e-001  9.801683e-002
    outer loop
      vertex -1.724966e+001  7.080227e-001 -1.136580e+001
      vertex -1.832966e+001  7.305039e-001 -1.159406e+001
      vertex -1.832966e+001  7.080227e-001 -1.136580e+001
    endloop
  endfacet
  facet normal  -0.000000e+000  9.569402e-001  2.902855e-001
    outer loop
      vertex -1.724966e+001  7.080227e-001 -1.136580e+001
      vertex -1.832966e+001  7.080227e-001 -1.136580e+001
      vertex -1.724966e+001  6.414430e-001 -1.114632e+001
    endloop
  endfacet
  facet normal  0.000000e+000  9.569402e-001  2.902855e-001
    outer loop
      vertex -1.724966e+001  6.414430e-001 -1.114632e+001
      vertex -1.832966e+001  7.080227e-001 -1.136580e+001
      vertex -1.832966e+001  6.414430e-001 -1.114632e+001
    endloop
  endfacet
  facet normal  -0.000000e+000  8.819218e-001  4.713957e-001
    outer loop
      vertex -1.724966e+001  6.414430e-001 -1.114632e+001
      vertex -1.832966e+001  6.414430e-001 -1.114632e+001
      vertex -1.724966e+001  5.333233e-001 -1.094404e+001
    endloop
  endfacet
  facet normal  0.000000e+000  8.819218e-001  4.713957e-001
    outer loop
      vertex -1.724966e+001  5.333233e-001 -1.094404e+001
      vertex -1.832966e+001  6.414430e-001 -1.114632e+001
      vertex -1.832966e+001  5.333233e-001 -1.094404e+001
    endloop
  endfacet
  facet normal  -0.000000e+000  7.730102e-001  6.343936e-001
    outer loop
      vertex -1.724966e+001  5.333233e-001 -1.094404e+001
      vertex -1.832966e+001  5.333233e-001 -1.094404e+001
      vertex -1.724966e+001  3.878188e-001 -1.076674e+001
    endloop
  endfacet
  facet normal  0.000000e+000  7.730102e-001  6.343936e-001
    outer loop
      vertex -1.724966e+001  3.878188e-001 -1.076674e+001
      vertex -1.832966e+001  5.333233e-001 -1.094404e+001
      vertex -1.832966e+001  3.878188e-001 -1.076674e+001
    endloop
  endfacet
  facet normal  -0.000000e+000  6.343920e-001  7.730115e-001
    outer loop
      vertex -1.724966e+001  3.878188e-001 -1.076674e+001
      vertex -1.832966e+001  3.878188e-001 -1.076674e+001
      vertex -1.724966e+001  2.105211e-001 -1.062124e+001
    endloop
  endfacet
  facet normal  0.000000e+000  6.343920e-001  7.730115e-001
    outer loop
      vertex -1.724966e+001  2.105211e-001 -1.062124e+001
      vertex -1.832966e+001  3.878188e-001 -1.076674e+001
      vertex -1.832966e+001  2.105211e-001 -1.062124e+001
    endloop
  endfacet
  facet normal  -0.000000e+000  4.713979e-001  8.819206e-001
    outer loop
      vertex -1.724966e+001  2.105211e-001 -1.062124e+001
      vertex -1.832966e+001  2.105211e-001 -1.062124e+001
      vertex -1.724966e+001  8.243538e-003 -1.051312e+001
    endloop
  endfacet
  facet normal  0.000000e+000  4.713979e-001  8.819206e-001
    outer loop
      vertex -1.724966e+001  8.243538e-003 -1.051312e+001
      vertex -1.832966e+001  2.105211e-001 -1.062124e+001
      vertex -1.832966e+001  8.243538e-003 -1.051312e+001
    endloop
  endfacet
  facet normal  -0.000000e+000  2.902851e-001  9.569402e-001
    outer loop
      vertex -1.724966e+001  8.243538e-003 -1.051312e+001
      vertex -1.832966e+001  8.243538e-003 -1.051312e+001
      vertex -1.724966e+001 -2.112404e-001 -1.044654e+001
    endloop
  endfacet
  facet normal  0.000000e+000  2.902851e-001  9.569402e-001
    outer loop
      vertex -1.724966e+001 -2.112404e-001 -1.044654e+001
      vertex -1.832966e+001  8.243538e-003 -1.051312e+001
      vertex -1.832966e+001 -2.112404e-001 -1.044654e+001
    endloop
  endfacet
  facet normal  -0.000000e+000  9.801603e-002  9.951848e-001
    outer loop
      vertex -1.724966e+001 -2.112404e-001 -1.044654e+001
      vertex -1.832966e+001 -2.112404e-001 -1.044654e+001
      vertex -1.724966e+001 -4.394961e-001 -1.042406e+001
    endloop
  endfacet
  facet normal  0.000000e+000  9.801603e-002  9.951848e-001
    outer loop
      vertex -1.724966e+001 -4.394961e-001 -1.042406e+001
      vertex -1.832966e+001 -2.112404e-001 -1.044654e+001
      vertex -1.832966e+001 -4.394961e-001 -1.042406e+001
    endloop
  endfacet
  facet normal  0.000000e+000 -9.801603e-002  9.951848e-001
    outer loop
      vertex -1.724966e+001 -4.394961e-001 -1.042406e+001
      vertex -1.832966e+001 -4.394961e-001 -1.042406e+001
      vertex -1.724966e+001 -6.677517e-001 -1.044654e+001
    endloop
  endfacet
  facet normal  0.000000e+000 -9.801603e-002  9.951848e-001
    outer loop
      vertex -1.724966e+001 -6.677517e-001 -1.044654e+001
      vertex -1.832966e+001 -4.394961e-001 -1.042406e+001
      vertex -1.832966e+001 -6.677517e-001 -1.044654e+001
    endloop
  endfacet
  facet normal  0.000000e+000 -2.902850e-001  9.569402e-001
    outer loop
      vertex -1.724966e+001 -6.677517e-001 -1.044654e+001
      vertex -1.832966e+001 -6.677517e-001 -1.044654e+001
      vertex -1.724966e+001 -8.872357e-001 -1.051312e+001
    endloop
  endfacet
  facet normal  0.000000e+000 -2.902850e-001  9.569402e-001
    outer loop
      vertex -1.724966e+001 -8.872357e-001 -1.051312e+001
      vertex -1.832966e+001 -6.677517e-001 -1.044654e+001
      vertex -1.832966e+001 -8.872357e-001 -1.051312e+001
    endloop
  endfacet
  facet normal  0.000000e+000 -4.713979e-001  8.819206e-001
    outer loop
      vertex -1.724966e+001 -8.872357e-001 -1.051312e+001
      vertex -1.832966e+001 -8.872357e-001 -1.051312e+001
      vertex -1.724966e+001 -1.089513e+000 -1.062124e+001
    endloop
  endfacet
  facet normal  0.000000e+000 -4.713979e-001  8.819206e-001
    outer loop
      vertex -1.724966e+001 -1.089513e+000 -1.062124e+001
      vertex -1.832966e+001 -8.872357e-001 -1.051312e+001
      vertex -1.832966e+001 -1.089513e+000 -1.062124e+001
    endloop
  endfacet
  facet normal  0.000000e+000 -6.343921e-001  7.730114e-001
    outer loop
      vertex -1.724966e+001 -1.089513e+000 -1.062124e+001
      vertex -1.832966e+001 -1.089513e+000 -1.062124e+001
      vertex -1.724966e+001 -1.266811e+000 -1.076674e+001
    endloop
  endfacet
  facet normal  0.000000e+000 -6.343921e-001  7.730114e-001
    outer loop
      vertex -1.724966e+001 -1.266811e+000 -1.076674e+001
      vertex -1.832966e+001 -1.089513e+000 -1.062124e+001
      vertex -1.832966e+001 -1.266811e+000 -1.076674e+001
    endloop
  endfacet
  facet normal  0.000000e+000 -7.730102e-001  6.343935e-001
    outer loop
      vertex -1.724966e+001 -1.266811e+000 -1.076674e+001
      vertex -1.832966e+001 -1.266811e+000 -1.076674e+001
      vertex -1.724966e+001 -1.412315e+000 -1.094404e+001
    endloop
  endfacet
  facet normal  0.000000e+000 -7.730102e-001  6.343935e-001
    outer loop
      vertex -1.724966e+001 -1.412315e+000 -1.094404e+001
      vertex -1.832966e+001 -1.266811e+000 -1.076674e+001
      vertex -1.832966e+001 -1.412315e+000 -1.094404e+001
    endloop
  endfacet
  facet normal  0.000000e+000 -8.819218e-001  4.713957e-001
    outer loop
      vertex -1.724966e+001 -1.412315e+000 -1.094404e+001
      vertex -1.832966e+001 -1.412315e+000 -1.094404e+001
      vertex -1.724966e+001 -1.520435e+000 -1.114632e+001
    endloop
  endfacet
  facet normal  0.000000e+000 -8.819218e-001  4.713957e-001
    outer loop
      vertex -1.724966e+001 -1.520435e+000 -1.114632e+001
      vertex -1.832966e+001 -1.412315e+000 -1.094404e+001
      vertex -1.832966e+001 -1.520435e+000 -1.114632e+001
    endloop
  endfacet
  facet normal  0.000000e+000 -9.569401e-001  2.902858e-001
    outer loop
      vertex -1.724966e+001 -1.520435e+000 -1.114632e+001
      vertex -1.832966e+001 -1.520435e+000 -1.114632e+001
      vertex -1.724966e+001 -1.587015e+000 -1.136580e+001
    endloop
  endfacet
  facet normal  0.000000e+000 -9.569401e-001  2.902858e-001
    outer loop
      vertex -1.724966e+001 -1.587015e+000 -1.136580e+001
      vertex -1.832966e+001 -1.520435e+000 -1.114632e+001
      vertex -1.832966e+001 -1.587015e+000 -1.136580e+001
    endloop
  endfacet
  facet normal  0.000000e+000 -9.951848e-001  9.801683e-002
    outer loop
      vertex -1.724966e+001 -1.587015e+000 -1.136580e+001
      vertex -1.832966e+001 -1.587015e+000 -1.136580e+001
      vertex -1.724966e+001 -1.609496e+000 -1.159406e+001
    endloop
  endfacet
  facet normal  0.000000e+000 -9.951848e-001  9.801683e-002
    outer loop
      vertex -1.724966e+001 -1.609496e+000 -1.159406e+001
      vertex -1.832966e+001 -1.587015e+000 -1.136580e+001
      vertex -1.832966e+001 -1.609496e+000 -1.159406e+001
    endloop
  endfacet
  facet normal  0.000000e+000 -9.951848e-001 -9.801723e-002
    outer loop
      vertex -1.724966e+001 -1.609496e+000 -1.159406e+001
      vertex -1.832966e+001 -1.609496e+000 -1.159406e+001
      vertex -1.724966e+001 -1.587015e+000 -1.182231e+001
    endloop
  endfacet
  facet normal  -0.000000e+000 -9.951848e-001 -9.801723e-002
    outer loop
      vertex -1.724966e+001 -1.587015e+000 -1.182231e+001
      vertex -1.832966e+001 -1.609496e+000 -1.159406e+001
      vertex -1.832966e+001 -1.587015e+000 -1.182231e+001
    endloop
  endfacet
  facet normal  0.000000e+000 -9.569404e-001 -2.902846e-001
    outer loop
      vertex -1.724966e+001 -1.587015e+000 -1.182231e+001
      vertex -1.832966e+001 -1.587015e+000 -1.182231e+001
      vertex -1.724966e+001 -1.520435e+000 -1.204180e+001
    endloop
  endfacet
  facet normal  -0.000000e+000 -9.569404e-001 -2.902846e-001
    outer loop
      vertex -1.724966e+001 -1.520435e+000 -1.204180e+001
      vertex -1.832966e+001 -1.587015e+000 -1.182231e+001
      vertex -1.832966e+001 -1.520435e+000 -1.204180e+001
    endloop
  endfacet
  facet normal  0.000000e+000 -8.819208e-001 -4.713974e-001
    outer loop
      vertex -1.724966e+001 -1.520435e+000 -1.204180e+001
      vertex -1.832966e+001 -1.520435e+000 -1.204180e+001
      vertex -1.724966e+001 -1.412315e+000 -1.224407e+001
    endloop
  endfacet
  facet normal  -0.000000e+000 -8.819208e-001 -4.713974e-001
    outer loop
      vertex -1.724966e+001 -1.412315e+000 -1.224407e+001
      vertex -1.832966e+001 -1.520435e+000 -1.204180e+001
      vertex -1.832966e+001 -1.412315e+000 -1.224407e+001
    endloop
  endfacet
  facet normal  0.000000e+000 -7.730102e-001 -6.343935e-001
    outer loop
      vertex -1.724966e+001 -1.412315e+000 -1.224407e+001
      vertex -1.832966e+001 -1.412315e+000 -1.224407e+001
      vertex -1.724966e+001 -1.266811e+000 -1.242137e+001
    endloop
  endfacet
  facet normal  -0.000000e+000 -7.730102e-001 -6.343935e-001
    outer loop
      vertex -1.724966e+001 -1.266811e+000 -1.242137e+001
      vertex -1.832966e+001 -1.412315e+000 -1.224407e+001
      vertex -1.832966e+001 -1.266811e+000 -1.242137e+001
    endloop
  endfacet
  facet normal  0.000000e+000 -6.343946e-001 -7.730095e-001
    outer loop
      vertex -1.724966e+001 -1.266811e+000 -1.242137e+001
      vertex -1.832966e+001 -1.266811e+000 -1.242137e+001
      vertex -1.724966e+001 -1.089513e+000 -1.256688e+001
    endloop
  endfacet
  facet normal  -0.000000e+000 -6.343946e-001 -7.730095e-001
    outer loop
      vertex -1.724966e+001 -1.089513e+000 -1.256688e+001
      vertex -1.832966e+001 -1.266811e+000 -1.242137e+001
      vertex -1.832966e+001 -1.089513e+000 -1.256688e+001
    endloop
  endfacet
  facet normal  0.000000e+000 -4.713979e-001 -8.819206e-001
    outer loop
      vertex -1.724966e+001 -1.089513e+000 -1.256688e+001
      vertex -1.832966e+001 -1.089513e+000 -1.256688e+001
      vertex -1.724966e+001 -8.872357e-001 -1.267500e+001
    endloop
  endfacet
  facet normal  -0.000000e+000 -4.713979e-001 -8.819206e-001
    outer loop
      vertex -1.724966e+001 -8.872357e-001 -1.267500e+001
      vertex -1.832966e+001 -1.089513e+000 -1.256688e+001
      vertex -1.832966e+001 -8.872357e-001 -1.267500e+001
    endloop
  endfacet
  facet normal  0.000000e+000 -2.902850e-001 -9.569402e-001
    outer loop
      vertex -1.724966e+001 -8.872357e-001 -1.267500e+001
      vertex -1.832966e+001 -8.872357e-001 -1.267500e+001
      vertex -1.724966e+001 -6.677517e-001 -1.274158e+001
    endloop
  endfacet
  facet normal  -0.000000e+000 -2.902850e-001 -9.569402e-001
    outer loop
      vertex -1.724966e+001 -6.677517e-001 -1.274158e+001
      vertex -1.832966e+001 -8.872357e-001 -1.267500e+001
      vertex -1.832966e+001 -6.677517e-001 -1.274158e+001
    endloop
  endfacet
  facet normal  0.000000e+000 -9.801603e-002 -9.951848e-001
    outer loop
      vertex -1.724966e+001 -6.677517e-001 -1.274158e+001
      vertex -1.832966e+001 -6.677517e-001 -1.274158e+001
      vertex -1.724966e+001 -4.394961e-001 -1.276406e+001
    endloop
  endfacet
  facet normal  -0.000000e+000 -9.801603e-002 -9.951848e-001
    outer loop
      vertex -1.724966e+001 -4.394961e-001 -1.276406e+001
      vertex -1.832966e+001 -6.677517e-001 -1.274158e+001
      vertex -1.832966e+001 -4.394961e-001 -1.276406e+001
    endloop
  endfacet
  facet normal  0.000000e+000  9.801603e-002 -9.951848e-001
    outer loop
      vertex -1.724966e+001 -4.394961e-001 -1.276406e+001
      vertex -1.832966e+001 -4.394961e-001 -1.276406e+001
      vertex -1.724966e+001 -2.112404e-001 -1.274158e+001
    endloop
  endfacet
  facet normal  0.000000e+000  9.801603e-002 -9.951848e-001
    outer loop
      vertex -1.724966e+001 -2.112404e-001 -1.274158e+001
      vertex -1.832966e+001 -4.394961e-001 -1.276406e+001
      vertex -1.832966e+001 -2.112404e-001 -1.274158e+001
    endloop
  endfacet
  facet normal  0.000000e+000  2.902851e-001 -9.569402e-001
    outer loop
      vertex -1.724966e+001 -2.112404e-001 -1.274158e+001
      vertex -1.832966e+001 -2.112404e-001 -1.274158e+001
      vertex -1.724966e+001  8.243538e-003 -1.267500e+001
    endloop
  endfacet
  facet normal  0.000000e+000  2.902851e-001 -9.569402e-001
    outer loop
      vertex -1.724966e+001  8.243538e-003 -1.267500e+001
      vertex -1.832966e+001 -2.112404e-001 -1.274158e+001
      vertex -1.832966e+001  8.243538e-003 -1.267500e+001
    endloop
  endfacet
  facet normal  0.000000e+000  4.713979e-001 -8.819206e-001
    outer loop
      vertex -1.724966e+001  8.243538e-003 -1.267500e+001
      vertex -1.832966e+001  8.243538e-003 -1.267500e+001
      vertex -1.724966e+001  2.105211e-001 -1.256688e+001
    endloop
  endfacet
  facet normal  0.000000e+000  4.713979e-001 -8.819206e-001
    outer loop
      vertex -1.724966e+001  2.105211e-001 -1.256688e+001
      vertex -1.832966e+001  8.243538e-003 -1.267500e+001
      vertex -1.832966e+001  2.105211e-001 -1.256688e+001
    endloop
  endfacet
  facet normal  0.000000e+000  6.343945e-001 -7.730095e-001
    outer loop
      vertex -1.724966e+001  2.105211e-001 -1.256688e+001
      vertex -1.832966e+001  2.105211e-001 -1.256688e+001
      vertex -1.724966e+001  3.878188e-001 -1.242137e+001
    endloop
  endfacet
  facet normal  0.000000e+000  6.343945e-001 -7.730095e-001
    outer loop
      vertex -1.724966e+001  3.878188e-001 -1.242137e+001
      vertex -1.832966e+001  2.105211e-001 -1.256688e+001
      vertex -1.832966e+001  3.878188e-001 -1.242137e+001
    endloop
  endfacet
  facet normal  0.000000e+000  7.730102e-001 -6.343936e-001
    outer loop
      vertex -1.724966e+001  3.878188e-001 -1.242137e+001
      vertex -1.832966e+001  3.878188e-001 -1.242137e+001
      vertex -1.724966e+001  5.333233e-001 -1.224407e+001
    endloop
  endfacet
  facet normal  0.000000e+000  7.730102e-001 -6.343936e-001
    outer loop
      vertex -1.724966e+001  5.333233e-001 -1.224407e+001
      vertex -1.832966e+001  3.878188e-001 -1.242137e+001
      vertex -1.832966e+001  5.333233e-001 -1.224407e+001
    endloop
  endfacet
  facet normal  0.000000e+000  8.819208e-001 -4.713974e-001
    outer loop
      vertex -1.724966e+001  5.333233e-001 -1.224407e+001
      vertex -1.832966e+001  5.333233e-001 -1.224407e+001
      vertex -1.724966e+001  6.414430e-001 -1.204180e+001
    endloop
  endfacet
  facet normal  0.000000e+000  8.819208e-001 -4.713974e-001
    outer loop
      vertex -1.724966e+001  6.414430e-001 -1.204180e+001
      vertex -1.832966e+001  5.333233e-001 -1.224407e+001
      vertex -1.832966e+001  6.414430e-001 -1.204180e+001
    endloop
  endfacet
  facet normal  0.000000e+000  9.569405e-001 -2.902844e-001
    outer loop
      vertex -1.724966e+001  6.414430e-001 -1.204180e+001
      vertex -1.832966e+001  6.414430e-001 -1.204180e+001
      vertex -1.724966e+001  7.080227e-001 -1.182231e+001
    endloop
  endfacet
  facet normal  0.000000e+000  9.569405e-001 -2.902844e-001
    outer loop
      vertex -1.724966e+001  7.080227e-001 -1.182231e+001
      vertex -1.832966e+001  6.414430e-001 -1.204180e+001
      vertex -1.832966e+001  7.080227e-001 -1.182231e+001
    endloop
  endfacet
  facet normal  0.000000e+000  9.951848e-001 -9.801723e-002
    outer loop
      vertex -1.724966e+001  7.080227e-001 -1.182231e+001
      vertex -1.832966e+001  7.080227e-001 -1.182231e+001
      vertex -1.724966e+001  7.305039e-001 -1.159406e+001
    endloop
  endfacet
  facet normal  0.000000e+000  9.951848e-001 -9.801723e-002
    outer loop
      vertex -1.724966e+001  7.305039e-001 -1.159406e+001
      vertex -1.832966e+001  7.080227e-001 -1.182231e+001
      vertex -1.832966e+001  7.305039e-001 -1.159406e+001
    endloop
  endfacet
  facet normal -1.000000e+000  0.000000e+000  0.000000e+000
    outer loop
      vertex -1.832966e+001 -2.112404e-001 -1.044654e+001
      vertex -1.832966e+001 -6.677517e-001 -1.044654e+001
      vertex -1.832966e+001 -4.394961e-001 -1.042406e+001
    endloop
  endfacet
  facet normal -1.000000e+000  -0.000000e+000  0.000000e+000
    outer loop
      vertex -1.832966e+001 -6.677517e-001 -1.044654e+001
      vertex -1.832966e+001 -2.112404e-001 -1.044654e+001
      vertex -1.832966e+001 -8.872357e-001 -1.051312e+001
    endloop
  endfacet
  facet normal -1.000000e+000  0.000000e+000  0.000000e+000
    outer loop
      vertex -1.832966e+001 -8.872357e-001 -1.051312e+001
      vertex -1.832966e+001 -2.112404e-001 -1.044654e+001
      vertex -1.832966e+001  8.243538e-003 -1.051312e+001
    endloop
  endfacet
  facet normal -1.000000e+000  -0.000000e+000  0.000000e+000
    outer loop
      vertex -1.832966e+001 -8.872357e-001 -1.051312e+001
      vertex -1.832966e+001  8.243538e-003 -1.051312e+001
      vertex -1.832966e+001 -1.089513e+000 -1.062124e+001
    endloop
  endfacet
  facet normal -1.000000e+000  0.000000e+000  0.000000e+000
    outer loop
      vertex -1.832966e+001 -1.089513e+000 -1.062124e+001
      vertex -1.832966e+001  8.243538e-003 -1.051312e+001
      vertex -1.832966e+001  2.105211e-001 -1.062124e+001
    endloop
  endfacet
  facet normal -1.000000e+000  -0.000000e+000  0.000000e+000
    outer loop
      vertex -1.832966e+001 -1.089513e+000 -1.062124e+001
      vertex -1.832966e+001  2.105211e-001 -1.062124e+001
      vertex -1.832966e+001 -1.266811e+000 -1.076674e+001
    endloop
  endfacet
  facet normal -9.999999e-001  0.000000e+000  0.000000e+000
    outer loop
      vertex -1.832966e+001 -1.266811e+000 -1.076674e+001
      vertex -1.832966e+001  2.105211e-001 -1.062124e+001
      vertex -1.832966e+001  3.878188e-001 -1.076674e+001
    endloop
  endfacet
  facet normal -1.000000e+000  -0.000000e+000  0.000000e+000
    outer loop
      vertex -1.832966e+001 -1.266811e+000 -1.076674e+001
      vertex -1.832966e+001  3.878188e-001 -1.076674e+001
      vertex -1.832966e+001 -1.412315e+000 -1.094404e+001
    endloop
  endfacet
  facet normal -9.999999e-001  0.000000e+000  0.000000e+000
    outer loop
      vertex -1.832966e+001 -1.412315e+000 -1.094404e+001
      vertex -1.832966e+001  3.878188e-001 -1.076674e+001
      vertex -1.832966e+001  5.333233e-001 -1.094404e+001
    endloop
  endfacet
  facet normal -1.000000e+000  -0.000000e+000  0.000000e+000
    outer loop
      vertex -1.832966e+001 -1.412315e+000 -1.094404e+001
      vertex -1.832966e+001  5.333233e-001 -1.094404e+001
      vertex -1.832966e+001 -1.520435e+000 -1.114632e+001
    endloop
  endfacet
  facet normal -1.000000e+000  0.000000e+000  0.000000e+000
    outer loop
      vertex -1.832966e+001 -1.520435e+000 -1.114632e+001
      vertex -1.832966e+001  5.333233e-001 -1.094404e+001
      vertex -1.832966e+001  6.414430e-001 -1.114632e+001
    endloop
  endfacet
  facet normal -1.000000e+000  -0.000000e+000  0.000000e+000
    outer loop
      vertex -1.832966e+001 -1.520435e+000 -1.114632e+001
      vertex -1.832966e+001  6.414430e-001 -1.114632e+001
      vertex -1.832966e+001 -1.587015e+000 -1.136580e+001
    endloop
  endfacet
  facet normal -1.000000e+000  0.000000e+000  0.000000e+000
    outer loop
      vertex -1.832966e+001 -1.587015e+000 -1.136580e+001
      vertex -1.832966e+001  6.414430e-001 -1.114632e+001
      vertex -1.832966e+001  7.080227e-001 -1.136580e+001
    endloop
  endfacet
  facet normal -1.000000e+000  -0.000000e+000  0.000000e+000
    outer loop
      vertex -1.832966e+001 -1.587015e+000 -1.136580e+001
      vertex -1.832966e+001  7.080227e-001 -1.136580e+001
      vertex -1.832966e+001 -1.609496e+000 -1.159406e+001
    endloop
  endfacet
  facet normal -1.000000e+000  0.000000e+000  0.000000e+000
    outer loop
      vertex -1.832966e+001 -1.609496e+000 -1.159406e+001
      vertex -1.832966e+001  7.080227e-001 -1.136580e+001
      vertex -1.832966e+001  7.305039e-001 -1.159406e+001
    endloop
  endfacet
  facet normal -1.000000e+000  -0.000000e+000  0.000000e+000
    outer loop
      vertex -1.832966e+001 -1.609496e+000 -1.159406e+001
      vertex -1.832966e+001  7.305039e-001 -1.159406e+001
      vertex -1.832966e+001 -1.587015e+000 -1.182231e+001
    endloop
  endfacet
  facet normal -9.999999e-001  0.000000e+000  0.000000e+000
    outer loop
      vertex -1.832966e+001 -1.587015e+000 -1.182231e+001
      vertex -1.832966e+001  7.305039e-001 -1.159406e+001
      vertex -1.832966e+001  7.080227e-001 -1.182231e+001
    endloop
  endfacet
  facet normal -1.000000e+000  -0.000000e+000  0.000000e+000
    outer loop
      vertex -1.832966e+001 -1.587015e+000 -1.182231e+001
      vertex -1.832966e+001  7.080227e-001 -1.182231e+001
      vertex -1.832966e+001 -1.520435e+000 -1.204180e+001
    endloop
  endfacet
  facet normal -1.000000e+000  0.000000e+000  0.000000e+000
    outer loop
      vertex -1.832966e+001 -1.520435e+000 -1.204180e+001
      vertex -1.832966e+001  7.080227e-001 -1.182231e+001
      vertex -1.832966e+001  6.414430e-001 -1.204180e+001
    endloop
  endfacet
  facet normal -9.999999e-001  -0.000000e+000  0.000000e+000
    outer loop
      vertex -1.832966e+001 -1.520435e+000 -1.204180e+001
      vertex -1.832966e+001  6.414430e-001 -1.204180e+001
      vertex -1.832966e+001 -1.412315e+000 -1.224407e+001
    endloop
  endfacet
  facet normal -1.000000e+000  0.000000e+000  0.000000e+000
    outer loop
      vertex -1.832966e+001 -1.412315e+000 -1.224407e+001
      vertex -1.832966e+001  6.414430e-001 -1.204180e+001
      vertex -1.832966e+001  5.333233e-001 -1.224407e+001
    endloop
  endfacet
  facet normal -9.999999e-001  -0.000000e+000  0.000000e+000
    outer loop
      vertex -1.832966e+001 -1.412315e+000 -1.224407e+001
      vertex -1.832966e+001  5.333233e-001 -1.224407e+001
      vertex -1.832966e+001 -1.266811e+000 -1.242137e+001
    endloop
  endfacet
  facet normal -1.000000e+000  0.000000e+000  0.000000e+000
    outer loop
      vertex -1.832966e+001 -1.266811e+000 -1.242137e+001
      vertex -1.832966e+001  5.333233e-001 -1.224407e+001
      vertex -1.832966e+001  3.878188e-001 -1.242137e+001
    endloop
  endfacet
  facet normal -9.999999e-001  -0.000000e+000  0.000000e+000
    outer loop
      vertex -1.832966e+001 -1.266811e+000 -1.242137e+001
      vertex -1.832966e+001  3.878188e-001 -1.242137e+001
      vertex -1.832966e+001 -1.089513e+000 -1.256688e+001
    endloop
  endfacet
  facet normal -1.000000e+000  0.000000e+000  0.000000e+000
    outer loop
      vertex -1.832966e+001 -1.089513e+000 -1.256688e+001
      vertex -1.832966e+001  3.878188e-001 -1.242137e+001
      vertex -1.832966e+001  2.105211e-001 -1.256688e+001
    endloop
  endfacet
  facet normal -1.000000e+000  -0.000000e+000  0.000000e+000
    outer loop
      vertex -1.832966e+001 -1.089513e+000 -1.256688e+001
      vertex -1.832966e+001  2.105211e-001 -1.256688e+001
      vertex -1.832966e+001 -8.872357e-001 -1.267500e+001
    endloop
  endfacet
  facet normal -1.000000e+000  0.000000e+000  0.000000e+000
    outer loop
      vertex -1.832966e+001 -8.872357e-001 -1.267500e+001
      vertex -1.832966e+001  2.105211e-001 -1.256688e+001
      vertex -1.832966e+001  8.243538e-003 -1.267500e+001
    endloop
  endfacet
  facet normal -1.000000e+000  -0.000000e+000  0.000000e+000
    outer loop
      vertex -1.832966e+001 -8.872357e-001 -1.267500e+001
      vertex -1.832966e+001  8.243538e-003 -1.267500e+001
      vertex -1.832966e+001 -6.677517e-001 -1.274158e+001
    endloop
  endfacet
  facet normal -1.000000e+000  0.000000e+000  0.000000e+000
    outer loop
      vertex -1.832966e+001 -6.677517e-001 -1.274158e+001
      vertex -1.832966e+001  8.243538e-003 -1.267500e+001
      vertex -1.832966e+001 -2.112404e-001 -1.274158e+001
    endloop
  endfacet
  facet normal -1.000000e+000  -0.000000e+000  0.000000e+000
    outer loop
      vertex -1.832966e+001 -6.677517e-001 -1.274158e+001
      vertex -1.832966e+001 -2.112404e-001 -1.274158e+001
      vertex -1.832966e+001 -4.394961e-001 -1.276406e+001
    endloop
  endfacet
  facet normal  1.000000e+000  0.000000e+000  0.000000e+000
    outer loop
      vertex -1.724966e+001 -1.399496e+000 -1.214831e+001
      vertex -1.724966e+001 -1.399496e+000 -1.103980e+001
      vertex -1.724966e+001 -1.412315e+000 -1.094404e+001
    endloop
  endfacet
  facet normal  1.000000e+000  0.000000e+000  0.000000e+000
    outer loop
      vertex -1.724966e+001 -1.399496e+000 -1.214831e+001
      vertex -1.724966e+001 -1.412315e+000 -1.094404e+001
      vertex -1.724966e+001 -1.520435e+000 -1.114632e+001
    endloop
  endfacet
  facet normal  1.000000e+000  0.000000e+000  0.000000e+000
    outer loop
      vertex -1.724966e+001 -1.399496e+000 -1.214831e+001
      vertex -1.724966e+001 -1.520435e+000 -1.114632e+001
      vertex -1.724966e+001 -1.587015e+000 -1.136580e+001
    endloop
  endfacet
  facet normal  1.000000e+000  0.000000e+000  0.000000e+000
    outer loop
      vertex -1.724966e+001 -1.399496e+000 -1.214831e+001
      vertex -1.724966e+001 -1.587015e+000 -1.136580e+001
      vertex -1.724966e+001 -1.609496e+000 -1.159406e+001
    endloop
  endfacet
  facet normal  1.000000e+000  0.000000e+000  0.000000e+000
    outer loop
      vertex -1.724966e+001 -1.399496e+000 -1.214831e+001
      vertex -1.724966e+001 -1.609496e+000 -1.159406e+001
      vertex -1.724966e+001 -1.587015e+000 -1.182231e+001
    endloop
  endfacet
  facet normal  1.000000e+000  0.000000e+000  0.000000e+000
    outer loop
      vertex -1.724966e+001 -1.399496e+000 -1.214831e+001
      vertex -1.724966e+001 -1.587015e+000 -1.182231e+001
      vertex -1.724966e+001 -1.520435e+000 -1.204180e+001
    endloop
  endfacet
  facet normal  1.000000e+000  0.000000e+000  0.000000e+000
    outer loop
      vertex -1.724966e+001 -1.399496e+000 -1.214831e+001
      vertex -1.724966e+001 -1.520435e+000 -1.204180e+001
      vertex -1.724966e+001 -1.412315e+000 -1.224407e+001
    endloop
  endfacet
  facet normal  1.000000e+000  -0.000000e+000  0.000000e+000
    outer loop
      vertex -1.724966e+001 -1.399496e+000 -1.214831e+001
      vertex -1.724966e+001 -1.412315e+000 -1.224407e+001
      vertex -1.724966e+001 -4.394961e-001 -1.270257e+001
    endloop
  endfacet
  facet normal  9.999999e-001  0.000000e+000  0.000000e+000
    outer loop
      vertex -1.724966e+001 -1.399496e+000 -1.103980e+001
      vertex -1.724966e+001 -4.394961e-001 -1.048554e+001
      vertex -1.724966e+001 -8.872357e-001 -1.051312e+001
    endloop
  endfacet
  facet normal  1.000000e+000  0.000000e+000  0.000000e+000
    outer loop
      vertex -1.724966e+001 -1.399496e+000 -1.103980e+001
      vertex -1.724966e+001 -8.872357e-001 -1.051312e+001
      vertex -1.724966e+001 -1.089513e+000 -1.062124e+001
    endloop
  endfacet
  facet normal  9.999999e-001  0.000000e+000  0.000000e+000
    outer loop
      vertex -1.724966e+001 -1.399496e+000 -1.103980e+001
      vertex -1.724966e+001 -1.089513e+000 -1.062124e+001
      vertex -1.724966e+001 -1.266811e+000 -1.076674e+001
    endloop
  endfacet
  facet normal  1.000000e+000  0.000000e+000  0.000000e+000
    outer loop
      vertex -1.724966e+001 -1.399496e+000 -1.103980e+001
      vertex -1.724966e+001 -1.266811e+000 -1.076674e+001
      vertex -1.724966e+001 -1.412315e+000 -1.094404e+001
    endloop
  endfacet
  facet normal  9.999999e-001  0.000000e+000  0.000000e+000
    outer loop
      vertex -1.724966e+001 -4.394961e-001 -1.270257e+001
      vertex -1.724966e+001 -1.412315e+000 -1.224407e+001
      vertex -1.724966e+001 -1.266811e+000 -1.242137e+001
    endloop
  endfacet
  facet normal  1.000000e+000  0.000000e+000  0.000000e+000
    outer loop
      vertex -1.724966e+001 -4.394961e-001 -1.270257e+001
      vertex -1.724966e+001 -1.266811e+000 -1.242137e+001
      vertex -1.724966e+001 -1.089513e+000 -1.256688e+001
    endloop
  endfacet
  facet normal  1.000000e+000  0.000000e+000  0.000000e+000
    outer loop
      vertex -1.724966e+001 -4.394961e-001 -1.270257e+001
      vertex -1.724966e+001 -1.089513e+000 -1.256688e+001
      vertex -1.724966e+001 -8.872357e-001 -1.267500e+001
    endloop
  endfacet
  facet normal  1.000000e+000  0.000000e+000  0.000000e+000
    outer loop
      vertex -1.724966e+001 -4.394961e-001 -1.270257e+001
      vertex -1.724966e+001 -8.872357e-001 -1.267500e+001
      vertex -1.724966e+001 -6.677517e-001 -1.274158e+001
    endloop
  endfacet
  facet normal  1.000000e+000  -0.000000e+000  0.000000e+000
    outer loop
      vertex -1.724966e+001 -4.394961e-001 -1.270257e+001
      vertex -1.724966e+001 -6.677517e-001 -1.274158e+001
      vertex -1.724966e+001 -4.394961e-001 -1.276406e+001
    endloop
  endfacet
  facet normal  1.000000e+000  0.000000e+000  0.000000e+000
    outer loop
      vertex -1.724966e+001 -4.394961e-001 -1.270257e+001
      vertex -1.724966e+001 -4.394961e-001 -1.276406e+001
      vertex -1.724966e+001 -2.112404e-001 -1.274158e+001
    endloop
  endfacet
  facet normal  1.000000e+000  0.000000e+000  -0.000000e+000
    outer loop
      vertex -1.724966e+001 -4.394961e-001 -1.270257e+001
      vertex -1.724966e+001 -2.112404e-001 -1.274158e+001
      vertex -1.724966e+001  8.243538e-003 -1.267500e+001
    endloop
  endfacet
  facet normal  1.000000e+000  0.000000e+000  -0.000000e+000
    outer loop
      vertex -1.724966e+001 -4.394961e-001 -1.270257e+001
      vertex -1.724966e+001  8.243538e-003 -1.267500e+001
      vertex -1.724966e+001  2.105211e-001 -1.256688e+001
    endloop
  endfacet
  facet normal  1.000000e+000  0.000000e+000  -0.000000e+000
    outer loop
      vertex -1.724966e+001 -4.394961e-001 -1.270257e+001
      vertex -1.724966e+001  2.105211e-001 -1.256688e+001
      vertex -1.724966e+001  3.878188e-001 -1.242137e+001
    endloop
  endfacet
  facet normal  9.999999e-001  0.000000e+000  -0.000000e+000
    outer loop
      vertex -1.724966e+001 -4.394961e-001 -1.270257e+001
      vertex -1.724966e+001  3.878188e-001 -1.242137e+001
      vertex -1.724966e+001  5.333233e-001 -1.224407e+001
    endloop
  endfacet
  facet normal  1.000000e+000  0.000000e+000  0.000000e+000
    outer loop
      vertex -1.724966e+001 -4.394961e-001 -1.270257e+001
      vertex -1.724966e+001  5.333233e-001 -1.224407e+001
      vertex -1.724966e+001  5.205039e-001 -1.214831e+001
    endloop
  endfacet
  facet normal  1.000000e+000  0.000000e+000  0.000000e+000
    outer loop
      vertex -1.724966e+001  5.205039e-001 -1.103980e+001
      vertex -1.724966e+001  5.205039e-001 -1.214831e+001
      vertex -1.724966e+001  6.414430e-001 -1.114632e+001
    endloop
  endfacet
  facet normal  9.999999e-001  0.000000e+000  0.000000e+000
    outer loop
      vertex -1.724966e+001  5.205039e-001 -1.103980e+001
      vertex -1.724966e+001  6.414430e-001 -1.114632e+001
      vertex -1.724966e+001  5.333233e-001 -1.094404e+001
    endloop
  endfacet
  facet normal  1.000000e+000  0.000000e+000  0.000000e+000
    outer loop
      vertex -1.724966e+001  5.205039e-001 -1.103980e+001
      vertex -1.724966e+001  5.333233e-001 -1.094404e+001
      vertex -1.724966e+001  3.878188e-001 -1.076674e+001
    endloop
  endfacet
  facet normal  1.000000e+000  0.000000e+000  0.000000e+000
    outer loop
      vertex -1.724966e+001  5.205039e-001 -1.103980e+001
      vertex -1.724966e+001  3.878188e-001 -1.076674e+001
      vertex -1.724966e+001  2.105211e-001 -1.062124e+001
    endloop
  endfacet
  facet normal  1.000000e+000  0.000000e+000  0.000000e+000
    outer loop
      vertex -1.724966e+001  5.205039e-001 -1.103980e+001
      vertex -1.724966e+001  2.105211e-001 -1.062124e+001
      vertex -1.724966e+001  8.243538e-003 -1.051312e+001
    endloop
  endfacet
  facet normal  9.999999e-001  0.000000e+000  0.000000e+000
    outer loop
      vertex -1.724966e+001  5.205039e-001 -1.103980e+001
      vertex -1.724966e+001  8.243538e-003 -1.051312e+001
      vertex -1.724966e+001 -4.394961e-001 -1.048554e+001
    endloop
  endfacet
  facet normal  1.000000e+000  0.000000e+000  -0.000000e+000
    outer loop
      vertex -1.724966e+001  5.205039e-001 -1.214831e+001
      vertex -1.724966e+001  5.333233e-001 -1.224407e+001
      vertex -1.724966e+001  6.414430e-001 -1.204180e+001
    endloop
  endfacet
  facet normal  1.000000e+000  0.000000e+000  -0.000000e+000
    outer loop
      vertex -1.724966e+001  5.205039e-001 -1.214831e+001
      vertex -1.724966e+001  6.414430e-001 -1.204180e+001
      vertex -1.724966e+001  7.080227e-001 -1.182231e+001
    endloop
  endfacet
  facet normal  1.000000e+000  0.000000e+000  -0.000000e+000
    outer loop
      vertex -1.724966e+001  5.205039e-001 -1.214831e+001
      vertex -1.724966e+001  7.080227e-001 -1.182231e+001
      vertex -1.724966e+001  7.305039e-001 -1.159406e+001
    endloop
  endfacet
  facet normal  9.999999e-001  0.000000e+000  0.000000e+000
    outer loop
      vertex -1.724966e+001  5.205039e-001 -1.214831e+001
      vertex -1.724966e+001  7.305039e-001 -1.159406e+001
      vertex -1.724966e+001  7.080227e-001 -1.136580e+001
    endloop
  endfacet
  facet normal  1.000000e+000  0.000000e+000  0.000000e+000
    outer loop
      vertex -1.724966e+001  5.205039e-001 -1.214831e+001
      vertex -1.724966e+001  7.080227e-001 -1.136580e+001
      vertex -1.724966e+001  6.414430e-001 -1.114632e+001
    endloop
  endfacet
  facet normal  1.000000e+000  0.000000e+000  0.000000e+000
    outer loop
      vertex -1.724966e+001  8.243538e-003 -1.051312e+001
      vertex -1.724966e+001 -2.112404e-001 -1.044654e+001
      vertex -1.724966e+001 -4.394961e-001 -1.048554e+001
    endloop
  endfacet
  facet normal  1.000000e+000  0.000000e+000  0.000000e+000
    outer loop
      vertex -1.724966e+001 -4.394961e-001 -1.048554e+001
      vertex -1.724966e+001 -2.112404e-001 -1.044654e+001
      vertex -1.724966e+001 -4.394961e-001 -1.042406e+001
    endloop
  endfacet
  facet normal  1.000000e+000  0.000000e+000  0.000000e+000
    outer loop
      vertex -1.724966e+001 -4.394961e-001 -1.048554e+001
      vertex -1.724966e+001 -4.394961e-001 -1.042406e+001
      vertex -1.724966e+001 -8.872357e-001 -1.051312e+001
    endloop
  endfacet
  facet normal  1.000000e+000  0.000000e+000  0.000000e+000
    outer loop
      vertex -1.724966e+001 -8.872357e-001 -1.051312e+001
      vertex -1.724966e+001 -4.394961e-001 -1.042406e+001
      vertex -1.724966e+001 -6.677517e-001 -1.044654e+001
    endloop
  endfacet
endsolid CATIA STL
